<?xml version="1.0" encoding="UTF-8"?>
<svg xmlns="http://www.w3.org/2000/svg" xmlns:xlink="http://www.w3.org/1999/xlink" width="100px" height="px" viewBox="0 0 100 100" version="1.1">
<g id="surface1">
<path style=" stroke:none;fill-rule:nonzero;fill:rgb(0%,0%,0%);fill-opacity:1;" d="M 10.605469 6.523438 C 8.613281 7.167969 6.992188 8.574219 6.074219 10.527344 L 5.566406 11.621094 L 5.507812 41.171875 C 5.46875 69.667969 5.46875 70.761719 5.820312 71.5625 C 6.347656 72.734375 7.324219 73.769531 8.476562 74.375 L 9.472656 74.902344 L 90.527344 74.902344 L 91.523438 74.375 C 92.675781 73.769531 93.652344 72.734375 94.179688 71.5625 C 94.53125 70.761719 94.53125 69.667969 94.492188 41.171875 L 94.433594 11.621094 L 93.808594 10.332031 C 93.046875 8.789062 91.816406 7.597656 90.273438 6.875 L 89.160156 6.347656 L 50.292969 6.308594 C 18.535156 6.289062 11.269531 6.328125 10.605469 6.523438 Z M 85.351562 40.527344 L 85.351562 65.625 L 14.648438 65.625 L 14.648438 15.429688 L 85.351562 15.429688 Z M 85.351562 40.527344 "/>
<path style=" stroke:none;fill-rule:nonzero;fill:rgb(0%,0%,0%);fill-opacity:1;" d="M 1.425781 78.457031 C 1.191406 78.496094 0.761719 78.808594 0.488281 79.121094 C 0 79.726562 0 79.726562 0 83.769531 C 0 88.261719 0.136719 89.003906 1.132812 90.488281 C 1.914062 91.601562 3.769531 92.851562 5.410156 93.359375 C 6.660156 93.75 7.167969 93.75 50 93.75 C 92.832031 93.75 93.339844 93.75 94.589844 93.359375 C 97.089844 92.578125 99.121094 90.761719 99.726562 88.730469 C 99.921875 88.085938 100 86.660156 100 83.769531 L 100 79.6875 L 99.433594 79.0625 L 98.867188 78.417969 L 50.351562 78.398438 C 23.671875 78.378906 1.660156 78.417969 1.425781 78.457031 Z M 62.402344 84.472656 C 63.574219 85.039062 63.828125 86.40625 62.910156 87.324219 L 62.34375 87.890625 L 37.539062 87.890625 L 37.03125 87.285156 C 36.210938 86.308594 36.464844 85.039062 37.578125 84.492188 C 38.105469 84.238281 39.765625 84.179688 49.960938 84.179688 C 60.214844 84.179688 61.835938 84.21875 62.402344 84.472656 Z M 62.402344 84.472656 "/>
</g>
</svg>
