<?xml version="1.0" encoding="UTF-8"?>
<svg xmlns="http://www.w3.org/2000/svg" xmlns:xlink="http://www.w3.org/1999/xlink" width="100px" height="px" viewBox="0 0 100 100" version="1.1">
<g id="surface1">
<path style=" stroke:none;fill-rule:nonzero;fill:rgb(0%,0%,0%);fill-opacity:1;" d="M 80.371094 6.972656 C 79.511719 7.421875 79.101562 7.832031 78.691406 8.632812 C 78.359375 9.257812 78.320312 9.804688 78.320312 12.890625 L 78.320312 16.40625 L 69.355469 16.40625 L 69.238281 9.765625 L 68.59375 9.140625 L 67.96875 8.496094 L 61.171875 8.4375 C 57.441406 8.398438 54.003906 8.4375 53.535156 8.496094 C 52.96875 8.59375 52.480469 8.808594 52.109375 9.179688 L 51.5625 9.726562 L 51.5625 16.40625 L 43.164062 16.40625 L 43.164062 32.949219 C 43.164062 44.0625 43.085938 49.765625 42.949219 50.253906 C 42.8125 50.761719 42.558594 51.113281 42.167969 51.328125 L 41.601562 51.660156 L 41.601562 54.21875 C 41.601562 57.441406 41.347656 58.300781 39.941406 59.707031 C 37.832031 61.796875 34.882812 61.855469 32.65625 59.84375 C 31.191406 58.535156 30.859375 57.519531 30.859375 54.21875 C 30.859375 51.621094 30.859375 51.621094 30.351562 51.40625 C 29.277344 50.898438 29.296875 51.25 29.296875 33.105469 L 29.296875 16.40625 L 25.976562 16.40625 L 25.976562 37.695312 C 25.976562 60.820312 26.015625 59.804688 24.921875 60.3125 L 24.414062 60.546875 L 24.414062 63.320312 C 24.414062 65.839844 24.355469 66.210938 23.945312 67.089844 C 23.4375 68.183594 22.246094 69.355469 21.152344 69.84375 C 20.078125 70.3125 18.085938 70.292969 16.972656 69.785156 C 15.839844 69.277344 14.707031 68.164062 14.199219 67.011719 C 13.867188 66.289062 13.769531 65.605469 13.710938 63.398438 L 13.632812 60.664062 L 12.96875 60.058594 L 12.304688 59.433594 L 12.304688 16.40625 L 11.09375 16.40625 C 9.101562 16.425781 7.636719 17.324219 6.953125 18.984375 C 6.679688 19.628906 6.640625 23.535156 6.640625 55.039062 L 6.640625 90.371094 L 7.089844 91.230469 C 7.34375 91.699219 7.929688 92.34375 8.378906 92.675781 L 9.21875 93.261719 L 90.78125 93.261719 L 91.621094 92.675781 C 92.070312 92.34375 92.65625 91.699219 92.910156 91.230469 L 93.359375 90.371094 L 93.359375 55 C 93.359375 20.996094 93.339844 19.589844 92.988281 18.847656 C 92.128906 16.972656 90.898438 16.40625 87.792969 16.40625 L 85.546875 16.40625 L 85.546875 12.929688 C 85.546875 9.257812 85.351562 8.398438 84.453125 7.578125 C 83.417969 6.679688 81.484375 6.386719 80.371094 6.972656 Z M 61.191406 22.285156 C 62.128906 22.714844 62.304688 23.359375 62.304688 26.445312 L 62.304688 29.296875 L 65.234375 29.296875 L 65.234375 26.484375 C 65.234375 24.921875 65.3125 23.4375 65.429688 23.164062 C 65.839844 22.070312 67.65625 21.777344 68.476562 22.675781 C 68.789062 23.027344 68.867188 23.515625 68.945312 26.152344 L 69.042969 29.199219 L 70.449219 29.257812 L 71.835938 29.316406 L 71.914062 26.269531 L 71.972656 23.203125 L 72.617188 22.636719 C 73.4375 21.894531 74.21875 21.894531 75.039062 22.636719 L 75.683594 23.203125 L 75.800781 29.296875 L 76.777344 29.296875 C 78.027344 29.296875 78.867188 29.648438 79.628906 30.527344 C 80.3125 31.308594 80.664062 32.304688 80.664062 33.4375 L 80.664062 34.179688 L 86.679688 34.179688 L 87.1875 34.785156 C 87.714844 35.410156 87.851562 36.269531 87.5 36.933594 C 87.070312 37.714844 86.308594 37.890625 83.398438 37.890625 L 80.664062 37.890625 L 80.664062 40.820312 L 86.5625 40.820312 L 87.128906 41.386719 C 87.910156 42.1875 87.910156 43.164062 87.128906 43.964844 L 86.5625 44.53125 L 80.664062 44.53125 L 80.664062 47.421875 L 83.554688 47.5 C 86.601562 47.558594 87.089844 47.695312 87.480469 48.574219 C 87.753906 49.160156 87.753906 49.921875 87.5 50.410156 C 87.070312 51.191406 86.308594 51.367188 83.4375 51.367188 L 80.722656 51.367188 L 80.605469 52.441406 C 80.390625 54.609375 79.023438 55.976562 76.855469 56.191406 L 75.78125 56.308594 L 75.78125 59.023438 C 75.78125 61.894531 75.605469 62.65625 74.824219 63.085938 C 74.257812 63.378906 73.300781 63.320312 72.753906 62.96875 C 72.070312 62.519531 71.875 61.582031 71.875 58.730469 L 71.875 56.25 L 68.945312 56.25 L 68.945312 62.148438 L 68.378906 62.714844 C 67.578125 63.496094 66.601562 63.496094 65.800781 62.714844 L 65.234375 62.148438 L 65.234375 56.25 L 62.304688 56.25 L 62.304688 58.984375 C 62.304688 61.894531 62.128906 62.65625 61.347656 63.085938 C 60.859375 63.339844 60.097656 63.339844 59.511719 63.066406 C 58.632812 62.675781 58.496094 62.1875 58.4375 59.121094 L 58.359375 56.25 L 57.753906 56.25 C 56.152344 56.25 54.511719 55.253906 53.984375 53.964844 C 53.828125 53.613281 53.710938 52.890625 53.710938 52.34375 L 53.710938 51.367188 L 50.957031 51.367188 C 47.929688 51.367188 47.109375 51.152344 46.699219 50.273438 C 46.347656 49.492188 46.445312 48.867188 47.050781 48.203125 L 47.617188 47.558594 L 50.683594 47.5 L 53.730469 47.421875 L 53.671875 46.035156 L 53.613281 44.628906 L 50.527344 44.53125 L 47.421875 44.433594 L 46.953125 43.886719 C 46.699219 43.59375 46.484375 43.125 46.484375 42.851562 C 46.484375 42.128906 47.03125 41.210938 47.578125 41.015625 C 47.851562 40.898438 49.335938 40.820312 50.898438 40.820312 L 53.710938 40.820312 L 53.710938 37.890625 L 50.859375 37.890625 C 48.554688 37.890625 47.910156 37.832031 47.460938 37.558594 C 46.40625 36.933594 46.191406 35.722656 46.992188 34.785156 L 47.480469 34.199219 L 53.613281 34.082031 L 53.730469 32.753906 C 53.828125 31.699219 53.945312 31.308594 54.414062 30.722656 C 55.214844 29.746094 56.132812 29.296875 57.34375 29.296875 L 58.359375 29.296875 L 58.417969 26.25 L 58.496094 23.203125 L 59.140625 22.636719 C 59.804688 22.03125 60.429688 21.933594 61.191406 22.285156 Z M 77.324219 72.617188 C 78.886719 73.457031 79.863281 74.941406 79.882812 76.503906 L 79.882812 77.34375 L 81.210938 77.34375 C 82.851562 77.34375 83.808594 77.597656 84.570312 78.261719 C 86.328125 79.726562 86.171875 82.460938 84.238281 83.789062 C 83.632812 84.199219 83.261719 84.296875 81.71875 84.335938 L 79.921875 84.414062 L 79.84375 85.449219 C 79.726562 86.875 78.90625 88.183594 77.65625 88.964844 L 76.699219 89.550781 L 65.644531 89.609375 C 57.792969 89.648438 54.355469 89.609375 53.808594 89.453125 C 51.914062 88.90625 50.644531 87.402344 50.449219 85.449219 L 50.332031 84.375 L 48.789062 84.375 C 46.972656 84.375 46.210938 84.101562 45.371094 83.144531 C 43.925781 81.503906 44.433594 78.808594 46.347656 77.792969 C 46.738281 77.597656 47.617188 77.441406 48.691406 77.382812 L 50.390625 77.304688 L 50.390625 76.679688 C 50.390625 74.648438 51.933594 72.773438 54.003906 72.246094 C 54.335938 72.167969 59.511719 72.109375 65.527344 72.128906 L 76.464844 72.167969 Z M 19.824219 79.003906 C 21.757812 80.117188 22.167969 82.773438 20.664062 84.492188 C 19.84375 85.429688 19.042969 85.800781 17.851562 85.78125 C 16.71875 85.78125 15.957031 85.449219 15.214844 84.628906 C 14.433594 83.808594 14.21875 83.28125 14.21875 82.148438 C 14.199219 79.21875 17.246094 77.480469 19.824219 79.003906 Z M 33.847656 78.535156 C 34.707031 78.769531 35.839844 79.6875 36.25 80.507812 C 36.601562 81.191406 36.640625 82.988281 36.308594 83.632812 C 35.703125 84.824219 34.53125 85.664062 33.398438 85.742188 C 32.148438 85.839844 31.71875 85.742188 30.917969 85.214844 C 28.203125 83.476562 28.847656 79.453125 31.992188 78.515625 C 32.734375 78.28125 33.007812 78.300781 33.847656 78.535156 Z M 33.847656 78.535156 "/>
<path style=" stroke:none;fill-rule:nonzero;fill:rgb(0%,0%,0%);fill-opacity:1;" d="M 57.421875 42.675781 L 57.421875 52.34375 L 76.757812 52.34375 L 76.757812 33.007812 L 57.421875 33.007812 Z M 57.421875 42.675781 "/>
<path style=" stroke:none;fill-rule:nonzero;fill:rgb(0%,0%,0%);fill-opacity:1;" d="M 54.296875 76.347656 C 54.179688 76.582031 54.101562 78.4375 54.101562 81.035156 C 54.101562 85.253906 54.101562 85.332031 54.53125 85.625 C 54.921875 85.898438 56.25 85.9375 65.136719 85.9375 C 74.023438 85.9375 75.351562 85.898438 75.742188 85.625 C 76.171875 85.332031 76.171875 85.253906 76.171875 80.878906 C 76.171875 77.695312 76.113281 76.386719 75.9375 76.210938 C 75.761719 76.035156 73.085938 75.976562 65.097656 75.976562 C 54.824219 75.976562 54.492188 75.996094 54.296875 76.347656 Z M 54.296875 76.347656 "/>
<path style=" stroke:none;fill-rule:nonzero;fill:rgb(0%,0%,0%);fill-opacity:1;" d="M 16.015625 36.621094 L 16.015625 56.855469 L 19.101562 56.796875 L 22.167969 56.738281 L 22.226562 36.5625 L 22.265625 16.40625 L 16.015625 16.40625 Z M 16.015625 36.621094 "/>
<path style=" stroke:none;fill-rule:nonzero;fill:rgb(0%,0%,0%);fill-opacity:1;" d="M 33.203125 32.128906 L 33.203125 47.851562 L 39.257812 47.851562 L 39.257812 16.40625 L 33.203125 16.40625 Z M 33.203125 32.128906 "/>
<path style=" stroke:none;fill-rule:nonzero;fill:rgb(0%,0%,0%);fill-opacity:1;" d="M 34.648438 51.835938 C 34.589844 51.992188 34.570312 53.144531 34.609375 54.375 C 34.667969 56.40625 34.707031 56.679688 35.097656 57.070312 C 35.683594 57.65625 36.777344 57.65625 37.363281 57.070312 C 37.753906 56.660156 37.792969 56.464844 37.792969 54.140625 L 37.792969 51.660156 L 36.269531 51.601562 C 35.078125 51.5625 34.746094 51.601562 34.648438 51.835938 Z M 34.648438 51.835938 "/>
<path style=" stroke:none;fill-rule:nonzero;fill:rgb(0%,0%,0%);fill-opacity:1;" d="M 17.578125 63.046875 C 17.578125 65.410156 17.597656 65.585938 18.027344 65.976562 C 18.652344 66.5625 19.609375 66.542969 20.214844 65.917969 C 20.683594 65.46875 20.703125 65.332031 20.703125 62.988281 L 20.703125 60.546875 L 17.578125 60.546875 Z M 17.578125 63.046875 "/>
</g>
</svg>
