<?xml version="1.0" encoding="UTF-8"?>
<svg xmlns="http://www.w3.org/2000/svg" xmlns:xlink="http://www.w3.org/1999/xlink" width="100px" height="px" viewBox="0 0 100 100" version="1.1">
<g id="surface1">
<path style=" stroke:none;fill-rule:nonzero;fill:rgb(0%,0%,0%);fill-opacity:1;" d="M 31.738281 4.824219 C 29.375 5.175781 26.757812 6.328125 24.765625 7.910156 C 22.773438 9.492188 20.996094 12.304688 20.175781 15.136719 C 19.882812 16.152344 19.84375 17.558594 19.765625 25.957031 L 19.707031 35.605469 L 18.945312 36.484375 C 17.949219 37.597656 17.382812 39.140625 17.382812 40.644531 L 17.382812 41.816406 L 16.113281 42.382812 C 10.820312 44.765625 6.933594 49.394531 5.429688 55.117188 C 5.039062 56.640625 5 57.265625 4.941406 65.683594 L 4.863281 74.609375 L 5.332031 75.664062 C 5.683594 76.425781 6.054688 76.894531 6.660156 77.285156 L 7.5 77.832031 L 23.125 77.890625 C 34.042969 77.929688 38.984375 77.890625 39.511719 77.734375 C 40.507812 77.441406 41.503906 76.523438 41.894531 75.527344 C 42.167969 74.785156 42.207031 73.613281 42.148438 65.527344 C 42.070312 55 42.050781 54.902344 40.253906 51.269531 C 38.378906 47.5 35.507812 44.609375 31.816406 42.8125 L 29.941406 41.894531 L 29.824219 40.625 C 29.648438 38.789062 29.179688 37.636719 28.203125 36.542969 L 27.324219 35.566406 L 27.441406 16.894531 L 27.988281 15.78125 C 28.652344 14.414062 29.960938 13.222656 31.367188 12.695312 C 32.382812 12.324219 32.871094 12.304688 41.894531 12.304688 C 50.917969 12.304688 51.40625 12.324219 52.421875 12.695312 C 53.828125 13.222656 55.136719 14.414062 55.800781 15.78125 L 56.347656 16.894531 L 56.445312 50.390625 C 56.542969 81.816406 56.5625 83.964844 56.894531 85.058594 C 58.339844 89.882812 61.972656 93.496094 66.796875 94.863281 C 67.890625 95.15625 68.828125 95.214844 73.339844 95.214844 C 77.851562 95.214844 78.789062 95.15625 79.882812 94.863281 C 83.789062 93.75 87.03125 91.113281 88.75 87.617188 C 90.097656 84.902344 90.117188 84.746094 90.195312 75.917969 L 90.253906 67.96875 L 82.636719 67.96875 L 82.578125 75.625 L 82.519531 83.300781 L 81.933594 84.355469 C 81.210938 85.683594 79.941406 86.796875 78.59375 87.304688 C 77.636719 87.65625 77.070312 87.695312 73.339844 87.695312 C 69.609375 87.695312 69.042969 87.65625 68.085938 87.304688 C 66.738281 86.796875 65.371094 85.585938 64.6875 84.296875 L 64.160156 83.300781 L 64.0625 49.804688 C 63.945312 12.5 64.0625 15.644531 62.617188 12.597656 C 61.289062 9.785156 59.140625 7.597656 56.328125 6.191406 C 53.554688 4.785156 53.769531 4.824219 42.480469 4.765625 C 36.894531 4.746094 32.070312 4.765625 31.738281 4.824219 Z M 34.589844 54.589844 C 36.171875 55.722656 36.230469 55.917969 36.289062 62.695312 C 36.328125 67.675781 36.289062 68.769531 36.054688 69.433594 C 35.664062 70.449219 34.902344 71.25 33.90625 71.699219 C 33.164062 72.03125 32.460938 72.070312 23.535156 72.070312 C 12.8125 72.070312 13.046875 72.089844 11.777344 70.644531 C 10.820312 69.550781 10.703125 68.59375 10.78125 62.304688 C 10.839844 56.230469 10.859375 56.171875 12.050781 55.039062 C 13.242188 53.886719 13.066406 53.90625 23.867188 53.964844 L 33.75 54.003906 Z M 34.589844 54.589844 "/>
<path style=" stroke:none;fill-rule:nonzero;fill:rgb(0%,0%,0%);fill-opacity:1;" d="M 14.6875 62.929688 L 14.746094 68.066406 L 23.59375 68.125 L 32.421875 68.164062 L 32.421875 57.8125 L 14.648438 57.8125 Z M 14.6875 62.929688 "/>
<path style=" stroke:none;fill-rule:nonzero;fill:rgb(0%,0%,0%);fill-opacity:1;" d="M 79.042969 24.960938 C 78.75 25.136719 78.339844 25.644531 78.125 26.09375 C 77.753906 26.855469 77.734375 27.363281 77.734375 42.246094 L 77.734375 57.597656 L 79.121094 60.351562 C 80.175781 62.480469 80.644531 63.203125 81.113281 63.496094 C 81.679688 63.828125 82.128906 63.867188 86.445312 63.867188 C 92.285156 63.867188 91.875 64.0625 93.769531 60.371094 L 95.117188 57.753906 L 95.117188 42.226562 C 95.117188 25.039062 95.175781 25.820312 93.847656 25 C 93.300781 24.667969 92.890625 24.609375 90.839844 24.609375 L 88.476562 24.609375 L 88.476562 29.414062 C 88.476562 33.339844 88.417969 34.335938 88.183594 34.863281 C 87.597656 36.054688 86.152344 36.289062 85.117188 35.371094 L 84.472656 34.804688 L 84.355469 24.609375 L 81.972656 24.609375 C 80.058594 24.609375 79.472656 24.6875 79.042969 24.960938 Z M 88.496094 40.390625 C 89.003906 40.859375 89.121094 41.09375 89.121094 41.796875 C 89.121094 42.5 89.003906 42.734375 88.496094 43.203125 C 87.949219 43.691406 87.753906 43.75 86.40625 43.75 C 85.039062 43.75 84.882812 43.710938 84.355469 43.183594 C 83.90625 42.734375 83.789062 42.441406 83.789062 41.796875 C 83.789062 41.152344 83.90625 40.859375 84.355469 40.410156 C 84.882812 39.882812 85.039062 39.84375 86.40625 39.84375 C 87.753906 39.84375 87.949219 39.902344 88.496094 40.390625 Z M 88.085938 47.226562 C 88.535156 47.441406 88.847656 47.792969 89.023438 48.28125 C 89.277344 48.925781 89.257812 49.082031 88.945312 49.746094 C 88.476562 50.683594 87.402344 51.074219 85.839844 50.878906 C 84.472656 50.722656 83.789062 50.078125 83.789062 48.984375 C 83.789062 48.554688 83.886719 48.046875 84.003906 47.832031 C 84.492188 46.914062 86.796875 46.582031 88.085938 47.226562 Z M 88.496094 54.648438 C 89.21875 55.292969 89.335938 56.289062 88.789062 57.109375 C 88.359375 57.773438 87.753906 58.007812 86.40625 58.007812 C 84.609375 58.007812 83.789062 57.363281 83.789062 55.957031 C 83.789062 55.429688 83.945312 55.097656 84.355469 54.667969 C 84.882812 54.140625 85.039062 54.101562 86.40625 54.101562 C 87.753906 54.101562 87.949219 54.160156 88.496094 54.648438 Z M 88.496094 54.648438 "/>
<path style=" stroke:none;fill-rule:nonzero;fill:rgb(0%,0%,0%);fill-opacity:1;" d="M 9.511719 81.972656 C 9.277344 82.207031 9.355469 91.367188 9.609375 92.34375 C 9.902344 93.535156 11.113281 94.765625 12.34375 95.097656 C 13.984375 95.566406 15.761719 94.902344 16.738281 93.496094 L 17.285156 92.714844 L 17.34375 87.265625 L 17.402344 81.835938 L 13.515625 81.835938 C 11.386719 81.835938 9.570312 81.894531 9.511719 81.972656 Z M 9.511719 81.972656 "/>
<path style=" stroke:none;fill-rule:nonzero;fill:rgb(0%,0%,0%);fill-opacity:1;" d="M 29.6875 86.953125 C 29.6875 92.734375 29.765625 93.085938 31.113281 94.277344 C 32.636719 95.605469 34.746094 95.605469 36.269531 94.277344 C 37.617188 93.085938 37.695312 92.734375 37.695312 86.953125 L 37.695312 81.835938 L 29.6875 81.835938 Z M 29.6875 86.953125 "/>
</g>
</svg>
