<?xml version="1.0" encoding="UTF-8"?>
<svg xmlns="http://www.w3.org/2000/svg" xmlns:xlink="http://www.w3.org/1999/xlink" width="100px" height="px" viewBox="0 0 100 100" version="1.1">
<g id="surface1">
<path style=" stroke:none;fill-rule:nonzero;fill:rgb(0%,0%,0%);fill-opacity:1;" d="M 48.242188 4.902344 C 47.539062 5.019531 46.191406 5.371094 45.214844 5.683594 C 40.566406 7.246094 36.933594 10.449219 34.765625 14.921875 C 33.457031 17.617188 32.949219 19.765625 32.949219 22.753906 C 32.949219 30.917969 38.066406 37.734375 46.035156 40.175781 C 47.597656 40.644531 48.046875 40.683594 50.878906 40.703125 C 53.515625 40.703125 54.257812 40.625 55.566406 40.273438 C 61.699219 38.574219 66.640625 33.632812 68.398438 27.441406 C 69.023438 25.195312 69.042969 20.546875 68.417969 18.261719 C 67.578125 15.175781 66.113281 12.578125 63.886719 10.292969 C 61.5625 7.871094 58.574219 6.113281 55.371094 5.273438 C 53.535156 4.804688 50.097656 4.609375 48.242188 4.902344 Z M 53.535156 12.65625 C 55.585938 13.652344 56.875 15.605469 56.992188 17.871094 C 57.128906 20.273438 56.035156 22.285156 53.945312 23.535156 C 52.851562 24.179688 52.734375 24.394531 52.734375 26.015625 C 52.734375 27.382812 52.226562 28.085938 51.132812 28.261719 C 50.488281 28.359375 50.332031 28.300781 49.707031 27.675781 C 49.042969 27.011719 49.023438 26.953125 49.023438 25.449219 C 49.042969 22.949219 49.785156 21.542969 51.660156 20.488281 C 53.75 19.316406 53.867188 17.109375 51.914062 16.09375 C 50.410156 15.3125 48.847656 16.347656 48.535156 18.378906 C 48.300781 19.941406 46.464844 20.585938 45.371094 19.472656 C 44.902344 19.023438 44.84375 18.808594 44.863281 17.851562 C 44.921875 15.605469 46.542969 13.359375 48.710938 12.5 C 50.078125 11.972656 52.265625 12.03125 53.535156 12.65625 Z M 52.304688 30.390625 C 52.773438 30.917969 52.871094 31.972656 52.519531 32.65625 C 52.246094 33.164062 51.210938 33.59375 50.546875 33.457031 C 49.296875 33.222656 48.652344 31.582031 49.414062 30.605469 C 50.234375 29.570312 51.484375 29.472656 52.304688 30.390625 Z M 52.304688 30.390625 "/>
<path style=" stroke:none;fill-rule:nonzero;fill:rgb(0%,0%,0%);fill-opacity:1;" d="M 11.347656 12.226562 C 9.082031 12.832031 6.894531 14.53125 5.820312 16.523438 C 4.648438 18.691406 4.6875 17.578125 4.6875 46.347656 C 4.6875 75.566406 4.628906 74.21875 5.976562 76.503906 C 7.148438 78.496094 8.90625 79.824219 11.308594 80.546875 C 12.246094 80.820312 14.082031 80.859375 26.484375 80.859375 C 36.289062 80.859375 40.644531 80.917969 40.722656 81.074219 C 40.800781 81.191406 40.898438 81.796875 40.957031 82.441406 C 41.054688 83.457031 40.996094 83.730469 40.449219 84.84375 C 39.746094 86.289062 37.871094 88.28125 35.351562 90.292969 L 33.710938 91.601562 L 31.71875 91.601562 C 29.84375 91.601562 29.707031 91.621094 29.21875 92.109375 C 28.535156 92.792969 28.515625 93.90625 29.179688 94.667969 L 29.648438 95.214844 L 49.648438 95.273438 C 64.394531 95.3125 69.765625 95.253906 70.175781 95.097656 C 71.367188 94.609375 71.660156 93.242188 70.78125 92.207031 C 70.273438 91.601562 70.273438 91.601562 68.28125 91.601562 L 66.289062 91.601562 L 64.648438 90.3125 C 62.402344 88.535156 60.15625 86.210938 59.570312 85.039062 C 59.042969 83.964844 58.847656 82.226562 59.160156 81.386719 L 59.375 80.859375 L 73.476562 80.859375 C 84.824219 80.859375 87.792969 80.800781 88.59375 80.585938 C 91.777344 79.746094 94.257812 77.1875 95.019531 74.003906 C 95.449219 72.109375 95.449219 20.664062 95.019531 18.769531 C 94.257812 15.566406 91.796875 13.046875 88.574219 12.207031 C 87.617188 11.972656 85.898438 11.914062 78.671875 11.914062 C 70.644531 11.914062 69.433594 11.972656 70.097656 12.382812 C 70.429688 12.597656 71.679688 15.800781 72.128906 17.597656 L 72.597656 19.433594 L 79.648438 19.492188 L 86.679688 19.53125 L 87.695312 20.742188 L 87.695312 65.234375 L 12.304688 65.234375 L 12.304688 20.742188 L 13.320312 19.53125 L 21.308594 19.53125 C 27.539062 19.53125 29.316406 19.472656 29.375 19.277344 C 29.414062 19.160156 29.628906 18.261719 29.84375 17.324219 C 30.078125 16.367188 30.664062 14.765625 31.132812 13.75 L 32.011719 11.914062 L 22.207031 11.933594 C 14.277344 11.933594 12.207031 11.992188 11.347656 12.226562 Z M 51.035156 70.390625 C 53.066406 71.230469 53.476562 73.75 51.855469 75.175781 C 49.238281 77.460938 45.566406 73.925781 47.792969 71.269531 C 48.691406 70.195312 49.84375 69.882812 51.035156 70.390625 Z M 51.035156 70.390625 "/>
<path style=" stroke:none;fill-rule:nonzero;fill:rgb(0%,0%,0%);fill-opacity:1;" d="M 45.253906 49.257812 C 44.785156 56.738281 44.785156 57.089844 45.527344 58.574219 C 47.773438 63.085938 54.160156 62.96875 56.445312 58.398438 C 56.699219 57.890625 56.914062 57.03125 56.972656 56.347656 C 57.050781 55.214844 56.386719 44.21875 56.230469 44.0625 C 56.191406 44.023438 55.585938 44.101562 54.882812 44.257812 C 52.695312 44.746094 47.890625 44.609375 45.878906 44.023438 C 45.625 43.945312 45.527344 44.628906 45.253906 49.257812 Z M 45.253906 49.257812 "/>
</g>
</svg>
