<?xml version="1.0" encoding="UTF-8"?>
<svg xmlns="http://www.w3.org/2000/svg" xmlns:xlink="http://www.w3.org/1999/xlink" width="100px" height="px" viewBox="0 0 100 100" version="1.1">
<g id="surface1">
<path style=" stroke:none;fill-rule:nonzero;fill:rgb(0%,0%,0%);fill-opacity:1;" d="M 33.066406 8.554688 C 32.832031 8.59375 32.402344 8.886719 32.128906 9.199219 C 31.640625 9.785156 31.640625 9.84375 31.640625 13.300781 L 31.640625 16.796875 L 30.15625 16.796875 C 28.789062 16.796875 28.632812 16.835938 28.105469 17.363281 L 27.539062 17.929688 L 27.539062 23.222656 L 26.679688 23.59375 C 25.46875 24.140625 24.316406 25.253906 23.710938 26.484375 L 23.203125 27.539062 L 17.929688 27.539062 L 17.363281 28.105469 C 16.835938 28.632812 16.796875 28.789062 16.796875 30.15625 L 16.796875 31.640625 L 9.765625 31.640625 L 9.199219 32.167969 C 8.339844 32.96875 8.300781 34.121094 9.101562 34.863281 C 9.628906 35.351562 9.667969 35.351562 13.203125 35.351562 L 16.796875 35.351562 L 16.796875 36.835938 C 16.796875 38.203125 16.835938 38.359375 17.363281 38.886719 L 17.929688 39.453125 L 23.046875 39.453125 L 23.046875 43.945312 L 20.820312 43.945312 C 19.609375 43.945312 18.339844 44.042969 17.988281 44.160156 C 17.148438 44.453125 16.796875 45.214844 16.796875 46.777344 L 16.796875 48.046875 L 13.574219 48.046875 C 9.355469 48.046875 8.59375 48.339844 8.59375 50 C 8.59375 51.660156 9.355469 51.953125 13.574219 51.953125 L 16.796875 51.953125 L 16.796875 53.222656 C 16.796875 54.785156 17.148438 55.546875 17.988281 55.839844 C 18.339844 55.957031 19.609375 56.054688 20.820312 56.054688 L 23.046875 56.054688 L 23.046875 60.546875 L 17.8125 60.546875 L 17.304688 61.152344 C 16.855469 61.679688 16.796875 61.914062 16.796875 63.203125 L 16.796875 64.648438 L 13.183594 64.648438 C 9.589844 64.648438 9.550781 64.648438 9.082031 65.136719 C 8.378906 65.820312 8.398438 67.128906 9.101562 67.792969 C 9.589844 68.242188 9.707031 68.261719 13.203125 68.320312 L 16.796875 68.378906 L 16.796875 69.84375 C 16.796875 71.210938 16.835938 71.367188 17.363281 71.894531 L 17.929688 72.460938 L 23.203125 72.460938 L 23.710938 73.515625 C 24.316406 74.746094 25.46875 75.859375 26.679688 76.40625 L 27.539062 76.777344 L 27.539062 82.070312 L 28.105469 82.636719 C 28.632812 83.164062 28.789062 83.203125 30.15625 83.203125 L 31.640625 83.203125 L 31.640625 90.234375 L 32.1875 90.800781 C 32.96875 91.660156 34.042969 91.679688 34.84375 90.898438 L 35.351562 90.371094 L 35.351562 83.203125 L 36.835938 83.203125 C 38.203125 83.203125 38.359375 83.164062 38.886719 82.636719 L 39.453125 82.070312 L 39.453125 76.953125 L 43.945312 76.953125 L 43.945312 79.179688 C 43.945312 80.390625 44.042969 81.660156 44.160156 82.011719 C 44.453125 82.851562 45.214844 83.203125 46.777344 83.203125 L 48.046875 83.203125 L 48.046875 86.425781 C 48.046875 90.644531 48.339844 91.40625 50 91.40625 C 51.660156 91.40625 51.953125 90.644531 51.953125 86.425781 L 51.953125 83.203125 L 53.222656 83.203125 C 54.785156 83.203125 55.546875 82.851562 55.839844 82.011719 C 55.957031 81.660156 56.054688 80.390625 56.054688 79.179688 L 56.054688 76.953125 L 60.546875 76.953125 L 60.546875 82.1875 L 61.152344 82.695312 C 61.679688 83.144531 61.914062 83.203125 63.203125 83.203125 L 64.648438 83.203125 L 64.648438 86.796875 C 64.648438 90.332031 64.648438 90.371094 65.136719 90.898438 C 65.878906 91.699219 67.03125 91.660156 67.832031 90.800781 L 68.359375 90.234375 L 68.359375 83.203125 L 69.804688 83.203125 C 71.074219 83.203125 71.347656 83.144531 71.816406 82.734375 C 72.363281 82.265625 72.363281 82.265625 72.421875 79.433594 L 72.480469 76.621094 L 73.28125 76.386719 C 74.355469 76.054688 76.054688 74.355469 76.386719 73.28125 L 76.621094 72.460938 L 82.070312 72.460938 L 82.636719 71.894531 C 83.164062 71.367188 83.203125 71.210938 83.203125 69.84375 L 83.203125 68.378906 L 86.796875 68.320312 C 90.292969 68.261719 90.410156 68.242188 90.898438 67.792969 C 91.601562 67.128906 91.621094 65.820312 90.917969 65.136719 C 90.449219 64.648438 90.410156 64.648438 86.816406 64.648438 L 83.203125 64.648438 L 83.203125 63.203125 C 83.203125 61.914062 83.144531 61.679688 82.695312 61.152344 L 82.1875 60.546875 L 76.953125 60.546875 L 76.953125 56.054688 L 79.179688 56.054688 C 80.390625 56.054688 81.660156 55.957031 82.011719 55.839844 C 82.851562 55.546875 83.203125 54.785156 83.203125 53.222656 L 83.203125 51.953125 L 86.425781 51.953125 C 90.644531 51.953125 91.40625 51.660156 91.40625 50 C 91.40625 48.339844 90.644531 48.046875 86.425781 48.046875 L 83.203125 48.046875 L 83.203125 46.777344 C 83.203125 45.214844 82.851562 44.453125 82.011719 44.160156 C 81.660156 44.042969 80.390625 43.945312 79.179688 43.945312 L 76.953125 43.945312 L 76.953125 39.453125 L 82.070312 39.453125 L 82.636719 38.886719 C 83.164062 38.359375 83.203125 38.203125 83.203125 36.835938 L 83.203125 35.351562 L 90.371094 35.351562 L 90.898438 34.84375 C 91.660156 34.0625 91.621094 32.832031 90.800781 32.148438 C 90.214844 31.640625 90.175781 31.640625 86.699219 31.640625 L 83.203125 31.640625 L 83.203125 30.15625 C 83.203125 28.789062 83.164062 28.632812 82.636719 28.105469 L 82.070312 27.539062 L 76.777344 27.539062 L 76.40625 26.679688 C 75.859375 25.46875 74.746094 24.316406 73.515625 23.710938 L 72.460938 23.203125 L 72.460938 17.929688 L 71.894531 17.363281 C 71.367188 16.835938 71.210938 16.796875 69.84375 16.796875 L 68.359375 16.796875 L 68.359375 9.765625 L 67.832031 9.199219 C 67.03125 8.339844 65.878906 8.300781 65.136719 9.101562 C 64.648438 9.628906 64.648438 9.667969 64.648438 13.203125 L 64.648438 16.796875 L 63.203125 16.796875 C 61.914062 16.796875 61.679688 16.855469 61.152344 17.304688 L 60.546875 17.8125 L 60.546875 23.046875 L 56.054688 23.046875 L 56.054688 20.820312 C 56.054688 19.609375 55.957031 18.339844 55.839844 17.988281 C 55.546875 17.148438 54.785156 16.796875 53.222656 16.796875 L 51.953125 16.796875 L 51.953125 13.574219 C 51.953125 9.355469 51.660156 8.59375 50 8.59375 C 48.339844 8.59375 48.046875 9.355469 48.046875 13.574219 L 48.046875 16.796875 L 46.777344 16.796875 C 45.214844 16.796875 44.453125 17.148438 44.160156 17.988281 C 44.042969 18.339844 43.945312 19.609375 43.945312 20.820312 L 43.945312 23.046875 L 39.453125 23.046875 L 39.453125 17.929688 L 38.886719 17.363281 C 38.359375 16.835938 38.203125 16.796875 36.835938 16.796875 L 35.351562 16.796875 L 35.351562 13.222656 C 35.351562 10.15625 35.292969 9.609375 35 9.238281 C 34.628906 8.75 33.75 8.4375 33.066406 8.554688 Z M 47.5 33.339844 C 49.53125 34.550781 52.207031 36.582031 54.277344 38.457031 C 62.480469 45.878906 65.3125 55.15625 61.640625 62.480469 C 60.292969 65.117188 57.539062 67.773438 56.132812 67.773438 C 55.761719 67.773438 55.46875 67.734375 55.46875 67.675781 C 55.46875 67.617188 55.722656 67.109375 56.035156 66.542969 C 57.128906 64.589844 57.519531 61.757812 57.011719 59.335938 C 56.503906 56.972656 54.6875 53.984375 52.714844 52.304688 C 51.757812 51.484375 49.570312 50 49.335938 50 C 49.277344 50 49.375 50.371094 49.53125 50.820312 C 49.921875 51.953125 50.136719 54.296875 49.960938 55.898438 C 49.824219 57.285156 49.199219 59.453125 48.75 60.058594 C 48.515625 60.390625 48.457031 60.332031 48.261719 59.394531 C 47.910156 57.792969 47.285156 56.503906 46.464844 55.761719 C 45.546875 54.941406 45.253906 54.882812 45.507812 55.585938 C 45.957031 56.777344 45.742188 57.8125 44.511719 60.390625 C 43.496094 62.519531 43.320312 63.046875 43.300781 64.003906 C 43.300781 65.195312 43.808594 66.679688 44.394531 67.167969 C 44.882812 67.558594 44.804688 67.773438 44.140625 67.773438 C 43.359375 67.773438 42.675781 67.402344 41.425781 66.347656 C 39.414062 64.628906 37.910156 62.207031 37.1875 59.570312 C 36.660156 57.636719 36.699219 54.414062 37.285156 52.539062 C 38.066406 50.019531 38.769531 48.925781 42.578125 44.238281 C 44.375 42.050781 45.546875 39.804688 45.917969 37.929688 C 46.132812 36.738281 46.074219 33.808594 45.78125 32.851562 C 45.722656 32.617188 45.722656 32.421875 45.800781 32.421875 C 45.878906 32.421875 46.640625 32.832031 47.5 33.339844 Z M 47.5 33.339844 "/>
</g>
</svg>
