<?xml version="1.0" encoding="UTF-8"?>
<svg xmlns="http://www.w3.org/2000/svg" xmlns:xlink="http://www.w3.org/1999/xlink" width="100px" height="px" viewBox="0 0 100 100" version="1.1">
<g id="surface1">
<path style=" stroke:none;fill-rule:nonzero;fill:rgb(0%,0%,0%);fill-opacity:1;" d="M 49.414062 4.84375 C 49.238281 4.921875 48.4375 5.410156 47.617188 5.917969 C 44.21875 8.066406 40.371094 9.179688 34.765625 9.6875 C 33.027344 9.824219 32.714844 9.980469 32.304688 10.761719 C 32.03125 11.289062 32.011719 12.421875 32.089844 20.292969 C 32.167969 30.136719 32.226562 30.703125 33.574219 34.394531 C 34.707031 37.460938 36.992188 40.957031 39.21875 42.988281 C 42.695312 46.171875 48.339844 49.609375 50.097656 49.609375 C 50.9375 49.609375 53.828125 48.144531 56.445312 46.386719 C 62.558594 42.285156 65.996094 37.441406 67.460938 30.859375 C 67.832031 29.121094 67.871094 28.4375 67.871094 19.863281 L 67.871094 10.703125 L 67.363281 10.273438 C 66.933594 9.902344 66.445312 9.785156 64.433594 9.589844 C 59.140625 9.0625 55.488281 7.929688 52.148438 5.78125 C 50.722656 4.84375 49.941406 4.589844 49.414062 4.84375 Z M 43.222656 16.015625 C 43.339844 16.015625 44.902344 17.480469 46.71875 19.277344 L 50 22.558594 L 53.183594 19.394531 C 54.921875 17.65625 56.5625 16.152344 56.855469 16.035156 C 57.597656 15.761719 58.339844 15.996094 58.90625 16.660156 C 59.335938 17.167969 59.394531 17.402344 59.316406 18.046875 C 59.21875 18.730469 58.867188 19.160156 55.976562 22.050781 L 52.734375 25.292969 L 56.054688 28.613281 C 59.179688 31.757812 59.375 32.011719 59.375 32.695312 C 59.375 33.769531 58.535156 34.570312 57.402344 34.570312 C 56.582031 34.570312 56.503906 34.511719 53.28125 31.308594 L 50 28.046875 L 46.71875 31.308594 C 43.496094 34.511719 43.417969 34.570312 42.597656 34.570312 C 41.933594 34.570312 41.640625 34.453125 41.171875 33.984375 C 40.644531 33.457031 40.585938 33.28125 40.683594 32.578125 C 40.78125 31.835938 41.09375 31.464844 44.023438 28.535156 L 47.265625 25.292969 L 44.023438 22.050781 C 41.132812 19.160156 40.78125 18.730469 40.683594 18.046875 C 40.605469 17.402344 40.664062 17.167969 41.09375 16.660156 C 41.601562 16.054688 42.207031 15.800781 42.734375 15.9375 C 42.890625 15.976562 43.105469 16.015625 43.222656 16.015625 Z M 43.222656 16.015625 "/>
<path style=" stroke:none;fill-rule:nonzero;fill:rgb(0%,0%,0%);fill-opacity:1;" d="M 10.742188 16.425781 C 9.667969 16.914062 8.691406 17.8125 8.144531 18.847656 L 7.714844 19.628906 L 7.65625 45.859375 C 7.636719 63.378906 7.675781 72.34375 7.8125 72.851562 C 8.144531 74.101562 9.179688 75.390625 10.351562 76.054688 L 11.425781 76.660156 L 88.574219 76.660156 L 89.648438 76.054688 C 90.820312 75.390625 91.855469 74.101562 92.1875 72.851562 C 92.324219 72.34375 92.363281 63.378906 92.34375 45.859375 L 92.285156 19.628906 L 91.855469 18.847656 C 91.308594 17.8125 90.332031 16.914062 89.257812 16.425781 C 88.417969 16.035156 88.007812 16.015625 80.136719 16.015625 L 71.875 16.015625 L 71.875 20.898438 L 85.527344 20.898438 L 86.621094 21.835938 L 86.679688 42.65625 L 86.71875 63.476562 L 13.28125 63.476562 L 13.320312 42.65625 L 13.378906 21.835938 L 14.472656 20.898438 L 28.125 20.898438 L 28.125 16.015625 L 19.882812 16.015625 C 11.992188 16.015625 11.582031 16.035156 10.742188 16.425781 Z M 42.792969 69.316406 C 43.535156 70.058594 43.554688 71.015625 42.871094 71.835938 C 42.285156 72.539062 41.523438 72.714844 40.683594 72.363281 C 39.453125 71.835938 39.199219 70.214844 40.214844 69.296875 C 41.054688 68.535156 42.011719 68.554688 42.792969 69.316406 Z M 50.957031 69.023438 C 52.03125 69.589844 52.246094 70.957031 51.40625 71.894531 C 50.019531 73.457031 47.441406 71.855469 48.242188 69.921875 C 48.671875 68.886719 49.882812 68.476562 50.957031 69.023438 Z M 59.726562 69.238281 C 60.46875 69.863281 60.625 70.507812 60.273438 71.386719 C 59.726562 72.695312 58.046875 72.929688 57.128906 71.835938 C 56.445312 71.015625 56.464844 70.058594 57.207031 69.316406 C 57.949219 68.574219 58.90625 68.554688 59.726562 69.238281 Z M 59.726562 69.238281 "/>
<path style=" stroke:none;fill-rule:nonzero;fill:rgb(0%,0%,0%);fill-opacity:1;" d="M 40.761719 82.03125 C 40.859375 83.28125 40.820312 83.496094 40.253906 84.648438 C 39.550781 86.09375 37.675781 88.085938 35.175781 90.078125 L 33.554688 91.367188 L 31.425781 91.445312 C 29.414062 91.503906 29.277344 91.523438 28.769531 92.03125 C 28.027344 92.792969 28.027344 93.925781 28.769531 94.667969 L 29.296875 95.214844 L 70.703125 95.214844 L 71.230469 94.6875 C 71.972656 93.925781 71.972656 92.792969 71.230469 92.03125 C 70.722656 91.523438 70.585938 91.503906 68.574219 91.445312 L 66.464844 91.367188 L 64.726562 89.980469 C 62.089844 87.871094 60.46875 86.132812 59.746094 84.667969 C 59.179688 83.496094 59.140625 83.28125 59.238281 82.03125 L 59.355469 80.664062 L 40.644531 80.664062 Z M 40.761719 82.03125 "/>
</g>
</svg>
