<?xml version="1.0" encoding="UTF-8"?>
<svg xmlns="http://www.w3.org/2000/svg" xmlns:xlink="http://www.w3.org/1999/xlink" width="100px" height="px" viewBox="0 0 100 100" version="1.1">
<g id="surface1">
<path style=" stroke:none;fill-rule:nonzero;fill:rgb(0%,0%,0%);fill-opacity:1;" d="M 48.710938 6.835938 C 47.34375 7.128906 46.113281 7.8125 45.195312 8.867188 C 44.433594 9.707031 32.304688 29.882812 30.507812 33.300781 C 30.058594 34.140625 29.980469 34.511719 29.980469 36.035156 C 29.980469 37.636719 30.039062 37.929688 30.625 39.101562 C 31.328125 40.527344 32.304688 41.503906 33.769531 42.226562 L 34.667969 42.675781 L 65.332031 42.675781 L 66.308594 42.1875 C 67.617188 41.542969 68.867188 40.253906 69.492188 38.90625 C 69.941406 37.949219 70.019531 37.539062 70.019531 36.035156 C 70.019531 34.707031 69.921875 34.121094 69.648438 33.59375 C 69.453125 33.222656 66.25 27.734375 62.519531 21.386719 C 55.058594 8.691406 54.453125 7.8125 52.441406 7.167969 C 51.171875 6.757812 49.707031 6.621094 48.710938 6.835938 Z M 50.957031 14.53125 C 51.914062 15.039062 51.953125 15.351562 51.953125 22.285156 L 51.953125 28.75 L 51.386719 29.316406 C 50.9375 29.765625 50.644531 29.882812 50 29.882812 C 49.355469 29.882812 49.0625 29.765625 48.613281 29.316406 L 48.046875 28.75 L 48.046875 22.226562 C 48.066406 15.273438 48.085938 15.058594 49.042969 14.53125 C 49.648438 14.199219 50.292969 14.199219 50.957031 14.53125 Z M 51.5625 33.730469 C 52.128906 34.472656 52.070312 35.410156 51.386719 36.171875 C 50.917969 36.699219 50.683594 36.816406 50 36.816406 C 48.417969 36.816406 47.480469 34.960938 48.457031 33.710938 C 49.238281 32.714844 50.761719 32.734375 51.5625 33.730469 Z M 51.5625 33.730469 "/>
<path style=" stroke:none;fill-rule:nonzero;fill:rgb(0%,0%,0%);fill-opacity:1;" d="M 12.792969 20.976562 C 11.621094 21.523438 10.898438 22.265625 10.371094 23.4375 C 9.980469 24.316406 9.960938 24.570312 9.960938 52.285156 L 9.960938 80.253906 L 25.449219 80.3125 L 40.917969 80.371094 L 41.777344 80.859375 C 42.324219 81.171875 43.085938 81.933594 43.847656 82.910156 L 45.058594 84.472656 L 49.941406 84.53125 L 54.84375 84.570312 L 56.09375 82.96875 C 56.894531 81.914062 57.65625 81.171875 58.203125 80.859375 L 59.082031 80.371094 L 74.570312 80.3125 L 90.039062 80.253906 L 90.039062 24.316406 L 89.570312 23.339844 C 89.042969 22.1875 88.066406 21.269531 86.894531 20.820312 C 86.132812 20.527344 84.960938 20.507812 76.425781 20.546875 L 66.796875 20.605469 L 68.515625 23.476562 L 70.214844 26.347656 L 76.210938 26.367188 L 82.207031 26.367188 L 83.300781 27.304688 L 83.300781 73.476562 L 82.207031 74.414062 L 17.734375 74.414062 L 16.601562 73.28125 L 16.601562 27.5 L 17.734375 26.367188 L 29.785156 26.367188 L 30.957031 24.375 C 31.601562 23.28125 32.382812 21.972656 32.675781 21.445312 L 33.242188 20.507812 L 13.769531 20.507812 Z M 12.792969 20.976562 "/>
<path style=" stroke:none;fill-rule:nonzero;fill:rgb(0%,0%,0%);fill-opacity:1;" d="M 28.515625 50.703125 C 26.191406 51.328125 24.277344 52.96875 23.164062 55.273438 C 22.597656 56.464844 22.558594 56.679688 22.558594 58.691406 C 22.558594 60.742188 22.597656 60.917969 23.222656 62.207031 C 24.375 64.550781 26.542969 66.230469 29.0625 66.777344 C 30.507812 67.089844 69.472656 67.089844 70.9375 66.777344 C 73.476562 66.25 75.625 64.53125 76.796875 62.167969 C 77.402344 60.917969 77.441406 60.722656 77.441406 58.691406 C 77.441406 56.679688 77.402344 56.464844 76.816406 55.214844 C 76.113281 53.730469 74.550781 52.03125 73.28125 51.386719 C 71.289062 50.371094 71.777344 50.390625 49.902344 50.410156 C 32.675781 50.410156 29.433594 50.46875 28.515625 50.703125 Z M 35.195312 57.03125 C 36.367188 57.949219 36.308594 59.628906 35.078125 60.371094 C 34.570312 60.683594 34.101562 60.742188 32.167969 60.742188 C 30.839844 60.742188 29.667969 60.644531 29.433594 60.527344 C 27.96875 59.785156 27.929688 57.402344 29.375 56.835938 C 29.589844 56.738281 30.898438 56.660156 32.246094 56.660156 C 34.414062 56.640625 34.765625 56.679688 35.195312 57.03125 Z M 47.128906 57.03125 C 47.871094 57.617188 48.144531 58.59375 47.773438 59.433594 C 47.324219 60.527344 46.679688 60.742188 44.003906 60.742188 C 42.050781 60.742188 41.601562 60.683594 41.074219 60.351562 C 39.960938 59.6875 39.882812 57.988281 40.917969 57.070312 C 41.386719 56.679688 41.601562 56.640625 44.023438 56.640625 C 46.347656 56.640625 46.679688 56.679688 47.128906 57.03125 Z M 59.199219 57.207031 C 59.648438 57.65625 59.765625 57.949219 59.765625 58.59375 C 59.765625 60.351562 59.082031 60.742188 55.957031 60.742188 C 53.320312 60.742188 52.675781 60.507812 52.226562 59.433594 C 51.855469 58.59375 52.128906 57.617188 52.871094 57.03125 C 53.320312 56.679688 53.652344 56.640625 55.996094 56.640625 L 58.632812 56.640625 Z M 71.210938 57.285156 C 72.070312 58.28125 71.757812 59.921875 70.566406 60.527344 C 70.332031 60.644531 69.160156 60.742188 67.832031 60.742188 C 65.898438 60.742188 65.429688 60.683594 64.921875 60.371094 C 63.671875 59.609375 63.632812 57.949219 64.824219 57.011719 C 65.273438 56.640625 65.546875 56.621094 68.027344 56.679688 C 70.722656 56.738281 70.742188 56.738281 71.210938 57.285156 Z M 71.210938 57.285156 "/>
<path style=" stroke:none;fill-rule:nonzero;fill:rgb(0%,0%,0%);fill-opacity:1;" d="M 4.84375 84.472656 C 4.570312 84.765625 4.6875 87.539062 5 88.671875 C 5.605469 90.839844 7.597656 92.695312 9.84375 93.164062 C 10.527344 93.300781 23.183594 93.339844 50.585938 93.320312 L 90.332031 93.261719 L 91.40625 92.753906 C 92.949219 92.03125 93.847656 91.171875 94.570312 89.6875 C 95.117188 88.574219 95.214844 88.164062 95.273438 86.484375 L 95.351562 84.570312 L 81.015625 84.570312 C 73.125 84.570312 65.214844 84.511719 63.4375 84.433594 L 60.195312 84.316406 L 59.101562 85.800781 C 57.929688 87.402344 57.128906 88.105469 56.074219 88.457031 C 55.644531 88.59375 53.535156 88.671875 50 88.671875 C 46.464844 88.671875 44.355469 88.59375 43.925781 88.457031 C 42.890625 88.105469 42.070312 87.382812 40.957031 85.917969 L 39.960938 84.570312 L 26.074219 84.570312 C 18.457031 84.570312 10.585938 84.511719 8.59375 84.453125 C 6.601562 84.375 4.921875 84.394531 4.84375 84.472656 Z M 4.84375 84.472656 "/>
</g>
</svg>
