<?xml version="1.0" encoding="UTF-8"?>
<svg xmlns="http://www.w3.org/2000/svg" xmlns:xlink="http://www.w3.org/1999/xlink" width="100px" height="px" viewBox="0 0 100 100" version="1.1">
<g id="surface1">
<path style=" stroke:none;fill-rule:nonzero;fill:rgb(0%,0%,0%);fill-opacity:1;" d="M 21.191406 5.253906 C 20.273438 5.683594 19.453125 6.503906 19.160156 7.285156 C 19.003906 7.675781 18.945312 16.503906 18.945312 35.761719 L 18.945312 63.671875 L 46.25 63.632812 L 73.535156 63.574219 L 73.535156 7.675781 L 72.949219 6.738281 C 72.578125 6.152344 72.070312 5.644531 71.582031 5.390625 C 70.800781 4.980469 70.722656 4.980469 46.386719 4.941406 C 22.949219 4.882812 21.933594 4.902344 21.191406 5.253906 Z M 50.292969 16.542969 C 51.054688 16.699219 52.5 17.226562 53.515625 17.714844 C 55.097656 18.476562 55.625 18.867188 57.148438 20.390625 C 58.671875 21.914062 59.0625 22.460938 59.824219 24.023438 C 60.976562 26.40625 61.425781 28.417969 61.269531 30.664062 C 61.132812 32.441406 61.015625 32.96875 59.84375 36.621094 C 59.101562 38.945312 59.101562 39.003906 59.082031 42.285156 C 59.0625 46.09375 58.90625 46.601562 57.617188 47.265625 C 57.1875 47.480469 56.113281 47.753906 55.234375 47.871094 C 52.8125 48.164062 52.832031 48.164062 52.675781 50.703125 C 52.578125 52.34375 52.246094 52.949219 51.09375 53.515625 C 48.59375 54.707031 41.875 54.335938 40.449219 52.910156 C 39.921875 52.382812 39.882812 52.226562 39.824219 50.566406 C 39.726562 48.378906 39.511719 48.144531 37.539062 47.949219 C 36.816406 47.890625 36.054688 47.792969 35.820312 47.753906 C 35.058594 47.597656 34.082031 46.777344 33.632812 45.898438 C 33.203125 45.097656 33.183594 44.882812 33.320312 43.359375 C 33.59375 40.488281 33.476562 39.335938 32.695312 37.089844 C 31.5625 33.847656 31.289062 32.753906 31.152344 30.917969 C 30.800781 26.386719 32.539062 22.265625 35.878906 19.746094 C 40.136719 16.5625 45.195312 15.429688 50.292969 16.542969 Z M 50.292969 16.542969 "/>
<path style=" stroke:none;fill-rule:nonzero;fill:rgb(0%,0%,0%);fill-opacity:1;" d="M 37.871094 32.675781 C 36.992188 33.261719 36.660156 34.277344 36.777344 35.917969 C 36.894531 37.421875 37.324219 38.066406 38.4375 38.476562 C 39.101562 38.710938 39.433594 38.710938 40.371094 38.515625 C 42.363281 38.105469 43.75 36.523438 43.75 34.667969 C 43.75 32.832031 42.890625 32.226562 40.273438 32.226562 C 38.789062 32.226562 38.4375 32.285156 37.871094 32.675781 Z M 37.871094 32.675781 "/>
<path style=" stroke:none;fill-rule:nonzero;fill:rgb(0%,0%,0%);fill-opacity:1;" d="M 49.765625 32.539062 C 47.871094 33.554688 48.515625 36.914062 50.839844 38.125 C 51.445312 38.4375 52.011719 38.554688 52.96875 38.574219 C 54.199219 38.574219 54.335938 38.535156 54.921875 37.929688 C 55.527344 37.34375 55.566406 37.1875 55.625 35.761719 C 55.722656 33.90625 55.371094 32.988281 54.394531 32.539062 C 53.535156 32.128906 50.507812 32.128906 49.765625 32.539062 Z M 49.765625 32.539062 "/>
<path style=" stroke:none;fill-rule:nonzero;fill:rgb(0%,0%,0%);fill-opacity:1;" d="M 45.136719 42.089844 C 44.375 42.734375 43.613281 44.355469 43.4375 45.625 C 43.339844 46.484375 43.378906 46.679688 43.808594 47.167969 C 44.257812 47.695312 44.375 47.734375 45.917969 47.753906 C 46.816406 47.753906 47.792969 47.695312 48.066406 47.597656 C 48.652344 47.421875 49.023438 46.738281 49.023438 45.898438 C 49.023438 44.921875 48.222656 43.105469 47.460938 42.324219 C 46.582031 41.464844 45.976562 41.40625 45.136719 42.089844 Z M 45.136719 42.089844 "/>
<path style=" stroke:none;fill-rule:nonzero;fill:rgb(0%,0%,0%);fill-opacity:1;" d="M 7.695312 20.195312 C 7.167969 20.449219 6.386719 21.035156 5.996094 21.503906 C 4.609375 23.105469 4.6875 21.640625 4.6875 48.476562 C 4.6875 64.863281 4.746094 72.949219 4.902344 73.496094 C 5.195312 74.726562 6.230469 75.996094 7.441406 76.660156 L 8.496094 77.246094 L 37.734375 77.304688 L 66.972656 77.34375 L 69.902344 72.421875 L 72.832031 67.480469 L 42.1875 67.421875 L 11.523438 67.382812 L 11.523438 47.050781 C 11.523438 24.6875 11.464844 25.859375 12.714844 25.410156 C 13.066406 25.292969 13.730469 25.195312 14.179688 25.195312 L 15.039062 25.195312 L 15.039062 19.726562 L 11.875 19.726562 C 8.945312 19.726562 8.613281 19.765625 7.695312 20.195312 Z M 39.003906 71.796875 C 39.550781 72.148438 39.84375 73.164062 39.589844 73.886719 C 39.335938 74.648438 38.359375 75.234375 37.597656 75.097656 C 36.152344 74.824219 35.527344 73.046875 36.503906 71.992188 C 37.1875 71.269531 38.046875 71.191406 39.003906 71.796875 Z M 46.972656 71.5625 C 47.324219 71.71875 47.714844 72.011719 47.832031 72.226562 C 48.105469 72.734375 48.105469 73.730469 47.851562 74.238281 C 47.539062 74.804688 46.542969 75.234375 45.898438 75.097656 C 45.15625 74.941406 44.335938 73.945312 44.335938 73.242188 C 44.335938 72.578125 45.15625 71.542969 45.761719 71.425781 C 45.996094 71.386719 46.210938 71.328125 46.25 71.308594 C 46.269531 71.308594 46.601562 71.40625 46.972656 71.5625 Z M 55.585938 71.71875 C 56.855469 72.324219 56.621094 74.511719 55.234375 74.980469 C 54.042969 75.410156 52.734375 74.550781 52.734375 73.359375 C 52.734375 71.757812 54.082031 70.976562 55.585938 71.71875 Z M 55.585938 71.71875 "/>
<path style=" stroke:none;fill-rule:nonzero;fill:rgb(0%,0%,0%);fill-opacity:1;" d="M 77.34375 22.441406 L 77.34375 25.136719 L 78.632812 25.253906 C 79.609375 25.332031 80.039062 25.449219 80.351562 25.761719 L 80.761719 26.191406 L 80.859375 44.980469 L 80.957031 63.75 L 81.816406 63.90625 C 83.75 64.238281 85.957031 65.625 87.148438 67.265625 L 87.695312 68.027344 L 87.65625 45.683594 C 87.597656 20.546875 87.734375 22.734375 86.113281 21.113281 C 84.941406 19.941406 84.042969 19.726562 80.429688 19.726562 L 77.34375 19.726562 Z M 77.34375 22.441406 "/>
<path style=" stroke:none;fill-rule:nonzero;fill:rgb(0%,0%,0%);fill-opacity:1;" d="M 78.007812 67.949219 C 77.558594 68.144531 76.914062 68.613281 76.542969 68.984375 C 75.976562 69.550781 66.933594 84.628906 65.449219 87.480469 C 64.433594 89.394531 64.960938 92.011719 66.640625 93.457031 C 68.183594 94.765625 68.027344 94.746094 80.488281 94.6875 C 91.640625 94.628906 91.699219 94.628906 92.5 94.199219 C 94.277344 93.261719 95.488281 90.996094 95.234375 89.140625 C 95.175781 88.671875 94.921875 87.871094 94.648438 87.363281 C 93.945312 85.957031 84.414062 69.921875 83.886719 69.21875 C 83.613281 68.867188 82.949219 68.359375 82.382812 68.085938 C 81.113281 67.441406 79.238281 67.382812 78.007812 67.949219 Z M 81.289062 73.027344 L 81.933594 73.59375 L 81.933594 84.375 L 81.386719 84.902344 C 80.644531 85.644531 79.511719 85.644531 78.769531 84.902344 L 78.222656 84.375 L 78.222656 79.023438 C 78.222656 73.945312 78.242188 73.652344 78.613281 73.242188 C 79.433594 72.324219 80.410156 72.246094 81.289062 73.027344 Z M 81.210938 87.597656 C 81.972656 88.222656 82.148438 89.042969 81.757812 89.824219 C 81.386719 90.527344 80.898438 90.820312 80.078125 90.820312 C 79.21875 90.820312 78.730469 90.507812 78.417969 89.765625 C 77.65625 87.929688 79.726562 86.347656 81.210938 87.597656 Z M 81.210938 87.597656 "/>
<path style=" stroke:none;fill-rule:nonzero;fill:rgb(0%,0%,0%);fill-opacity:1;" d="M 37.226562 82.070312 C 37.5 84.433594 35.390625 87.285156 30.976562 90.566406 L 29.84375 91.40625 L 27.988281 91.40625 C 25.9375 91.40625 25.527344 91.542969 25.078125 92.402344 C 24.707031 93.144531 24.863281 93.945312 25.507812 94.550781 L 26.015625 95.019531 L 44.433594 95.078125 L 62.871094 95.117188 L 62.207031 93.867188 C 61.835938 93.164062 61.445312 92.070312 61.308594 91.425781 C 61.09375 90.332031 61.015625 90.175781 60.039062 89.433594 C 58.476562 88.222656 56.328125 85.878906 55.742188 84.726562 C 55.3125 83.886719 55.214844 83.4375 55.214844 82.363281 L 55.234375 81.054688 L 37.109375 81.054688 Z M 37.226562 82.070312 "/>
</g>
</svg>
