<?xml version="1.0" encoding="UTF-8"?>
<svg xmlns="http://www.w3.org/2000/svg" xmlns:xlink="http://www.w3.org/1999/xlink" width="100px" height="px" viewBox="0 0 100 100" version="1.1">
<g id="surface1">
<path style=" stroke:none;fill-rule:nonzero;fill:rgb(0%,0%,0%);fill-opacity:1;" d="M 48.730469 5.019531 C 48.808594 5.214844 48.925781 6.269531 48.984375 7.363281 L 49.082031 9.375 L 51.738281 9.375 C 54.628906 9.355469 55.039062 9.238281 55.683594 8.28125 C 56.386719 7.207031 56.074219 5.917969 54.902344 5.136719 C 54.296875 4.726562 54.023438 4.6875 51.40625 4.6875 C 48.808594 4.6875 48.59375 4.707031 48.730469 5.019531 Z M 48.730469 5.019531 "/>
<path style=" stroke:none;fill-rule:nonzero;fill:rgb(0%,0%,0%);fill-opacity:1;" d="M 35.566406 5.097656 C 34.160156 5.371094 32.832031 5.859375 30.996094 6.777344 C 28.867188 7.832031 26.855469 8.496094 24.824219 8.808594 L 23.242188 9.042969 L 23.242188 31.445312 L 24.003906 31.445312 C 25.097656 31.445312 27.851562 31.953125 29.140625 32.402344 C 29.746094 32.617188 31.035156 33.144531 31.972656 33.59375 C 34.746094 34.921875 35.996094 35.15625 40.273438 35.15625 L 43.964844 35.15625 L 43.808594 34.414062 C 43.515625 33.085938 43.671875 31.542969 44.21875 30.371094 L 44.707031 29.277344 L 43.847656 28.222656 C 42.460938 26.523438 42.050781 24.453125 42.695312 22.539062 C 42.851562 22.050781 42.96875 21.621094 42.929688 21.601562 C 42.890625 21.582031 42.207031 21.25 41.40625 20.859375 C 37.851562 19.121094 35.996094 15.722656 36.171875 11.210938 C 36.230469 9.433594 36.269531 9.316406 36.777344 8.867188 C 37.519531 8.222656 38.652344 8.222656 39.394531 8.867188 C 39.921875 9.316406 39.941406 9.433594 40.058594 11.5625 C 40.234375 14.882812 40.976562 16.269531 43.203125 17.363281 C 45.292969 18.417969 45.15625 18.847656 45.078125 12.050781 C 45.019531 5.722656 44.980469 5.546875 44.003906 5.097656 C 43.4375 4.84375 36.835938 4.84375 35.566406 5.097656 Z M 35.566406 5.097656 "/>
<path style=" stroke:none;fill-rule:nonzero;fill:rgb(0%,0%,0%);fill-opacity:1;" d="M 8.007812 20.3125 L 8.007812 33.203125 L 12.773438 33.203125 C 17.675781 33.203125 18.59375 33.085938 18.945312 32.421875 C 19.0625 32.1875 19.140625 27.539062 19.140625 20.15625 L 19.140625 8.261719 L 18.691406 7.851562 C 18.242188 7.441406 18.105469 7.421875 13.125 7.421875 L 8.007812 7.421875 Z M 8.007812 20.3125 "/>
<path style=" stroke:none;fill-rule:nonzero;fill:rgb(0%,0%,0%);fill-opacity:1;" d="M 49.023438 15.625 L 49.023438 17.96875 L 56.425781 17.96875 L 57.109375 17.363281 C 57.988281 16.601562 58.183594 15.722656 57.695312 14.707031 C 57.070312 13.4375 56.484375 13.28125 52.5 13.28125 L 49.023438 13.28125 Z M 49.023438 15.625 "/>
<path style=" stroke:none;fill-rule:nonzero;fill:rgb(0%,0%,0%);fill-opacity:1;" d="M 48.203125 22.011719 C 47.441406 22.128906 46.542969 23.046875 46.386719 23.867188 C 46.210938 24.765625 46.679688 25.78125 47.441406 26.230469 C 48.222656 26.699219 54.003906 26.71875 54.882812 26.269531 C 55.566406 25.917969 56.054688 25.058594 56.054688 24.257812 C 56.054688 23.457031 55.292969 22.402344 54.492188 22.128906 C 53.847656 21.914062 49.414062 21.835938 48.203125 22.011719 Z M 48.203125 22.011719 "/>
<path style=" stroke:none;fill-rule:nonzero;fill:rgb(0%,0%,0%);fill-opacity:1;" d="M 48.4375 31.191406 C 47.324219 32.207031 47.34375 33.710938 48.457031 34.648438 C 49.003906 35.117188 49.199219 35.15625 50.917969 35.15625 C 52.773438 35.15625 52.773438 35.15625 53.4375 34.492188 C 54.003906 33.925781 54.101562 33.691406 54.101562 32.910156 C 54.101562 32.128906 54.003906 31.894531 53.4375 31.328125 C 52.773438 30.664062 52.773438 30.664062 50.898438 30.664062 C 49.140625 30.664062 49.003906 30.703125 48.4375 31.191406 Z M 48.4375 31.191406 "/>
<path style=" stroke:none;fill-rule:nonzero;fill:rgb(0%,0%,0%);fill-opacity:1;" d="M 30.15625 38.886719 C 29.667969 39.824219 28.769531 40.957031 27.363281 42.441406 C 23.4375 46.5625 21.230469 49.726562 18.75 54.785156 C 16.914062 58.535156 15.722656 61.621094 14.6875 65.46875 C 13.378906 70.195312 13.007812 72.773438 13.027344 76.953125 C 13.027344 80.214844 13.066406 80.761719 13.535156 82.460938 C 14.316406 85.429688 15.371094 87.265625 17.460938 89.375 C 19.042969 90.9375 19.492188 91.269531 21.484375 92.246094 C 25.644531 94.296875 29.902344 95.039062 38.574219 95.253906 C 44.472656 95.390625 50.488281 95.097656 53.984375 94.511719 C 56.328125 94.101562 60.546875 92.890625 60.546875 92.597656 C 60.546875 92.519531 60.078125 92.050781 59.492188 91.542969 C 56.875 89.277344 54.023438 84.628906 53.144531 81.191406 C 51.210938 73.632812 53.085938 66.09375 58.242188 60.625 C 60.019531 58.769531 61.445312 57.597656 63.125 56.640625 C 63.75 56.308594 64.316406 55.9375 64.375 55.839844 C 64.53125 55.585938 62.304688 51.425781 60.820312 49.160156 C 59.140625 46.660156 57.714844 44.863281 55.410156 42.441406 C 54.375 41.347656 53.359375 40.175781 53.164062 39.863281 L 52.792969 39.257812 L 44.414062 39.199219 C 36.09375 39.140625 36.015625 39.140625 34.160156 38.632812 C 33.125 38.339844 32.011719 37.988281 31.679688 37.8125 C 31.347656 37.636719 31.035156 37.5 30.976562 37.5 C 30.917969 37.5 30.546875 38.125 30.15625 38.886719 Z M 43.125 52.402344 C 43.398438 52.675781 43.632812 53.203125 43.691406 53.671875 C 43.789062 54.375 43.886719 54.511719 44.453125 54.6875 C 45.410156 55.019531 46.972656 56.503906 47.539062 57.65625 C 48.222656 59.003906 48.203125 59.785156 47.480469 60.585938 C 47.011719 61.113281 46.777344 61.230469 46.132812 61.230469 C 45.195312 61.230469 44.6875 60.820312 44.082031 59.609375 C 43.027344 57.5 40.410156 57.519531 39.375 59.628906 C 38.90625 60.605469 39.082031 61.542969 39.902344 62.421875 C 40.46875 63.046875 40.683594 63.125 41.992188 63.28125 C 42.988281 63.417969 43.847656 63.671875 44.707031 64.101562 C 49.375 66.464844 49.433594 73.007812 44.824219 75.605469 C 43.925781 76.113281 43.789062 76.269531 43.671875 76.933594 C 43.515625 77.929688 42.636719 78.710938 41.660156 78.710938 C 40.722656 78.710938 39.84375 77.832031 39.84375 76.875 C 39.84375 76.25 39.765625 76.152344 38.984375 75.820312 C 37.734375 75.253906 36.621094 74.160156 35.9375 72.8125 C 35.273438 71.464844 35.234375 71.113281 35.644531 70.3125 C 36.015625 69.609375 36.484375 69.335938 37.34375 69.335938 C 38.222656 69.335938 38.789062 69.765625 39.335938 70.859375 C 39.882812 71.933594 40.683594 72.460938 41.738281 72.460938 C 44.082031 72.460938 45.214844 69.609375 43.496094 68.027344 C 43.066406 67.65625 42.519531 67.363281 42.050781 67.304688 C 39.726562 66.953125 39.101562 66.757812 38.085938 66.054688 C 33.945312 63.222656 34.355469 57.070312 38.867188 54.785156 C 39.726562 54.355469 39.84375 54.21875 39.84375 53.691406 C 39.84375 52.910156 40.117188 52.421875 40.78125 52.050781 C 41.484375 51.660156 42.539062 51.816406 43.125 52.402344 Z M 23.769531 75.390625 C 24.492188 75.820312 24.804688 76.699219 24.804688 78.28125 C 24.804688 80.820312 26.152344 81.953125 30 82.695312 C 30.859375 82.851562 32.34375 83.046875 33.300781 83.105469 C 34.277344 83.183594 35.351562 83.320312 35.683594 83.4375 C 37.128906 83.867188 37.578125 85.507812 36.542969 86.542969 C 36.230469 86.855469 35.800781 87.128906 35.605469 87.128906 C 33.984375 87.246094 29.785156 86.71875 27.578125 86.113281 C 24.53125 85.292969 22.34375 83.75 21.484375 81.757812 C 21.269531 81.308594 21.015625 80.078125 20.878906 79.042969 C 20.625 76.777344 20.820312 75.9375 21.757812 75.371094 C 22.519531 74.902344 22.988281 74.902344 23.769531 75.390625 Z M 23.769531 75.390625 "/>
<path style=" stroke:none;fill-rule:nonzero;fill:rgb(0%,0%,0%);fill-opacity:1;" d="M 70.410156 57.929688 C 63.632812 59.433594 58.398438 64.667969 56.699219 71.640625 C 56.210938 73.652344 56.269531 77.382812 56.796875 79.570312 C 57.636719 82.929688 59.355469 85.917969 61.835938 88.300781 C 63.515625 89.882812 64.628906 90.644531 66.679688 91.621094 C 70.703125 93.496094 75.292969 93.789062 79.550781 92.460938 C 85.800781 90.488281 90.410156 85.371094 91.699219 78.925781 C 92.207031 76.445312 92.03125 72.539062 91.308594 70.3125 C 89.355469 64.257812 85.039062 60 79.003906 58.183594 C 77.148438 57.617188 72.421875 57.480469 70.410156 57.929688 Z M 75.585938 64.550781 L 76.074219 65.039062 L 76.074219 78.710938 L 75.546875 79.238281 C 74.785156 79.980469 73.652344 79.980469 72.890625 79.238281 L 72.363281 78.710938 L 72.363281 71.894531 C 72.363281 65.351562 72.382812 65.058594 72.753906 64.648438 C 73.574219 63.730469 74.726562 63.710938 75.585938 64.550781 Z M 75.488281 83.671875 C 76.152344 84.335938 76.269531 85 75.878906 85.800781 C 75.390625 86.855469 74.335938 87.1875 73.242188 86.621094 C 72.128906 86.035156 72.050781 84.238281 73.125 83.496094 C 73.769531 83.027344 74.941406 83.125 75.488281 83.671875 Z M 75.488281 83.671875 "/>
</g>
</svg>
