<?xml version="1.0" encoding="UTF-8"?>
<svg xmlns="http://www.w3.org/2000/svg" xmlns:xlink="http://www.w3.org/1999/xlink" width="100px" height="100px" viewBox="0 0 100 100" version="1.1">
<g id="surface1">
<path style=" stroke:none;fill-rule:nonzero;fill:rgb(0%,0%,0%);fill-opacity:1;" d="M 64.746094 12.34375 C 61.523438 17.167969 58.867188 21.210938 58.828125 21.308594 C 58.789062 21.40625 60.859375 21.484375 63.671875 21.484375 L 68.574219 21.484375 L 69.042969 21.972656 C 69.375 22.285156 69.53125 22.65625 69.53125 23.144531 C 69.53125 23.671875 67.382812 32.109375 66.875 33.59375 C 66.816406 33.789062 66.835938 33.828125 66.972656 33.691406 C 67.246094 33.398438 78.515625 17.949219 78.515625 17.851562 C 78.515625 17.8125 76.757812 17.773438 74.609375 17.773438 C 70.703125 17.773438 70.683594 17.773438 70.214844 17.285156 C 69.589844 16.679688 69.589844 16.269531 70.234375 9.550781 C 70.507812 6.660156 70.703125 4.121094 70.664062 3.90625 C 70.625 3.691406 68.457031 6.757812 64.746094 12.34375 Z M 64.746094 12.34375 "/>
<path style=" stroke:none;fill-rule:nonzero;fill:rgb(0%,0%,0%);fill-opacity:1;" d="M 7.617188 11.015625 C 6.367188 11.347656 5.332031 12.03125 4.667969 12.949219 C 3.457031 14.628906 3.515625 12.988281 3.515625 43.984375 C 3.515625 59.53125 3.59375 72.265625 3.671875 72.265625 C 3.75 72.265625 5.097656 71.757812 6.640625 71.132812 L 9.472656 70 L 12.050781 65.722656 C 13.476562 63.359375 14.824219 61.269531 15.058594 61.09375 C 15.292969 60.898438 15.703125 60.742188 15.996094 60.742188 C 16.289062 60.742188 18.164062 61.40625 20.175781 62.207031 C 22.1875 63.007812 23.90625 63.671875 24.023438 63.671875 C 24.121094 63.671875 24.863281 62.382812 25.664062 60.78125 C 27.109375 57.910156 27.480469 57.382812 28.222656 57.167969 C 28.4375 57.089844 30.136719 57.421875 31.992188 57.890625 L 35.371094 58.75 L 37.304688 57.480469 L 39.257812 56.210938 L 39.257812 45.898438 L 39.804688 45.3125 C 40.332031 44.726562 40.351562 44.726562 49.785156 43.164062 C 55 42.304688 59.296875 41.5625 59.335938 41.523438 C 59.375 41.464844 55.058594 34.824219 54.589844 34.21875 C 54.570312 34.199219 53.203125 34.53125 51.542969 34.960938 C 49.882812 35.390625 48.339844 35.742188 48.125 35.742188 C 47.636719 35.742188 38.339844 30.234375 37.851562 29.648438 C 37.363281 29.101562 37.402344 28.613281 38.105469 26.445312 C 38.4375 25.410156 38.632812 24.492188 38.535156 24.414062 C 38.457031 24.335938 36.347656 23.59375 33.867188 22.773438 C 31.367188 21.953125 29.199219 21.132812 29.023438 20.9375 C 28.867188 20.742188 28.671875 20.3125 28.59375 20 C 28.496094 19.472656 28.808594 18.90625 31.191406 15.3125 C 32.695312 13.066406 33.964844 11.113281 34.0625 10.976562 C 34.257812 10.644531 8.90625 10.664062 7.617188 11.015625 Z M 9.746094 14.53125 C 10.46875 14.921875 10.742188 15.605469 10.742188 17.089844 C 10.742188 18.203125 10.683594 18.417969 10.214844 18.925781 C 9.433594 19.765625 8.457031 19.804688 7.714844 19.042969 C 7.265625 18.613281 7.226562 18.417969 7.226562 16.914062 C 7.226562 15.3125 7.246094 15.253906 7.832031 14.765625 C 8.515625 14.199219 8.964844 14.140625 9.746094 14.53125 Z M 10.097656 23.710938 L 10.644531 24.179688 L 10.703125 41.640625 C 10.742188 54.511719 10.683594 59.21875 10.527344 59.628906 C 10.292969 60.214844 9.453125 60.742188 8.808594 60.742188 C 8.59375 60.742188 8.164062 60.507812 7.832031 60.234375 L 7.226562 59.726562 L 7.226562 24.199219 L 7.734375 23.730469 C 8.417969 23.085938 9.375 23.085938 10.097656 23.710938 Z M 24.804688 33.59375 C 26.308594 34.335938 27.617188 34.960938 27.695312 34.960938 C 27.792969 34.960938 28.066406 34.511719 28.320312 33.964844 C 28.886719 32.792969 29.53125 32.226562 30.292969 32.226562 C 31.054688 32.226562 38.554688 35.976562 38.945312 36.5625 C 39.121094 36.796875 39.257812 37.246094 39.257812 37.558594 C 39.257812 38.28125 38.300781 39.257812 37.617188 39.257812 C 37.324219 39.257812 35.78125 38.59375 34.160156 37.773438 C 32.539062 36.972656 31.191406 36.328125 31.152344 36.367188 C 31.132812 36.40625 30.839844 36.953125 30.507812 37.617188 C 29.921875 38.789062 29.335938 39.257812 28.496094 39.257812 C 28.300781 39.257812 26.640625 38.515625 24.804688 37.597656 L 21.503906 35.9375 L 19.84375 36.738281 C 18.007812 37.636719 17.5 37.636719 16.679688 36.816406 C 16.171875 36.308594 16.054688 35.410156 16.40625 34.746094 C 16.699219 34.21875 20.644531 32.246094 21.445312 32.246094 C 21.855469 32.226562 23.027344 32.714844 24.804688 33.59375 Z M 24.804688 33.59375 "/>
<path style=" stroke:none;fill-rule:nonzero;fill:rgb(0%,0%,0%);fill-opacity:1;" d="M 35.839844 14.570312 C 34.453125 16.679688 33.28125 18.476562 33.242188 18.554688 C 33.203125 18.632812 35.195312 19.375 37.65625 20.195312 C 40.136719 21.035156 42.265625 21.855469 42.441406 22.03125 C 43.066406 22.753906 43.046875 23.242188 42.265625 25.507812 C 41.855469 26.738281 41.5625 27.753906 41.621094 27.8125 C 41.660156 27.851562 43.261719 28.828125 45.175781 29.960938 L 48.671875 32.03125 L 52.109375 31.171875 C 55.175781 30.390625 55.605469 30.332031 56.132812 30.546875 C 56.601562 30.742188 57.324219 31.699219 59.277344 34.628906 C 60.683594 36.738281 61.855469 38.476562 61.914062 38.476562 C 62.011719 38.476562 65.429688 25.488281 65.429688 25.136719 C 65.429688 25.058594 63.105469 25 60.273438 25 C 57.324219 25 54.882812 24.921875 54.589844 24.804688 C 54.296875 24.6875 53.964844 24.335938 53.789062 23.925781 C 53.554688 23.339844 53.554688 23.144531 53.769531 22.597656 C 53.925781 22.265625 55.722656 19.453125 57.773438 16.347656 L 61.523438 10.742188 L 38.378906 10.742188 Z M 35.839844 14.570312 "/>
<path style=" stroke:none;fill-rule:nonzero;fill:rgb(0%,0%,0%);fill-opacity:1;" d="M 73.632812 11.289062 C 73.632812 11.601562 73.574219 12.402344 73.515625 13.066406 L 73.378906 14.257812 L 77.910156 14.257812 C 82.929688 14.257812 83.378906 14.355469 83.769531 15.449219 C 83.925781 15.898438 83.90625 16.191406 83.710938 16.660156 C 83.554688 17.011719 79.550781 22.597656 74.804688 29.101562 L 66.191406 40.917969 L 72.089844 40.976562 C 75.332031 40.996094 78.027344 40.976562 78.085938 40.917969 C 78.144531 40.878906 77.851562 39.316406 77.460938 37.460938 C 77.070312 35.605469 76.757812 33.886719 76.757812 33.632812 C 76.757812 33.085938 77.519531 32.285156 78.183594 32.128906 C 78.535156 32.03125 81.015625 32.910156 87.324219 35.351562 C 92.089844 37.207031 96.113281 38.75 96.25 38.808594 C 96.445312 38.886719 96.484375 36.621094 96.445312 26.835938 C 96.386719 15.742188 96.367188 14.6875 96.035156 14.003906 C 95.566406 12.988281 94.414062 11.777344 93.476562 11.269531 C 92.695312 10.839844 92.5 10.839844 83.164062 10.78125 L 73.632812 10.722656 Z M 73.632812 11.289062 "/>
<path style=" stroke:none;fill-rule:nonzero;fill:rgb(0%,0%,0%);fill-opacity:1;" d="M 81.5625 39.863281 C 81.933594 41.503906 82.167969 43.027344 82.109375 43.28125 C 82.050781 43.515625 81.777344 43.925781 81.503906 44.179688 C 81.035156 44.609375 80.898438 44.628906 76.933594 44.726562 L 72.832031 44.824219 L 80.292969 47.617188 C 84.394531 49.140625 87.773438 50.371094 87.792969 50.351562 C 87.832031 50.3125 87.382812 49.101562 86.796875 47.65625 C 85.722656 44.980469 85.585938 44.394531 85.9375 43.75 C 86.289062 43.105469 86.894531 42.929688 90.46875 42.480469 C 92.402344 42.226562 94.003906 41.992188 94.0625 41.933594 C 94.160156 41.855469 81.445312 36.914062 81.113281 36.914062 C 80.996094 36.914062 81.191406 38.144531 81.5625 39.863281 Z M 81.5625 39.863281 "/>
<path style=" stroke:none;fill-rule:nonzero;fill:rgb(0%,0%,0%);fill-opacity:1;" d="M 61.621094 48.632812 C 60.664062 50.546875 59.921875 52.167969 59.960938 52.207031 C 60.019531 52.246094 61.992188 52.597656 64.335938 52.988281 L 68.632812 53.691406 L 75.488281 60.546875 L 78.515625 59.746094 C 82.167969 58.808594 82.675781 58.769531 83.378906 59.453125 C 83.867188 59.960938 83.886719 60.058594 83.945312 62.675781 L 84.003906 65.371094 L 86.894531 68.242188 L 89.785156 71.132812 L 93.085938 69.785156 L 96.386719 68.417969 L 96.445312 56.855469 L 96.484375 45.273438 L 95.761719 45.390625 C 95.351562 45.449219 93.925781 45.644531 92.578125 45.820312 C 91.25 45.976562 90.117188 46.132812 90.097656 46.171875 C 90.058594 46.191406 90.664062 47.753906 91.40625 49.609375 C 92.167969 51.484375 92.773438 53.300781 92.773438 53.652344 C 92.773438 54.550781 92.03125 55.273438 91.152344 55.273438 C 90.78125 55.273438 84.960938 53.183594 77.324219 50.3125 C 70.078125 47.597656 63.984375 45.3125 63.769531 45.234375 C 63.417969 45.136719 63.164062 45.527344 61.621094 48.632812 Z M 61.621094 48.632812 "/>
<path style=" stroke:none;fill-rule:nonzero;fill:rgb(0%,0%,0%);fill-opacity:1;" d="M 50.683594 46.660156 L 42.871094 47.949219 L 42.773438 52.949219 C 42.695312 56.542969 42.597656 58.027344 42.421875 58.242188 C 41.972656 58.789062 36.230469 62.5 35.839844 62.5 C 35.625 62.5 34.121094 62.148438 32.5 61.738281 L 29.550781 60.996094 L 28.105469 63.925781 C 27.304688 65.527344 26.464844 67.050781 26.230469 67.304688 C 25.546875 68.046875 24.765625 67.910156 20.820312 66.308594 C 18.828125 65.507812 17.089844 64.84375 16.953125 64.84375 C 16.816406 64.84375 15.644531 66.621094 14.375 68.769531 C 13.085938 70.9375 11.855469 72.8125 11.640625 72.949219 C 11.40625 73.085938 9.492188 73.886719 7.382812 74.726562 L 3.515625 76.25 L 3.515625 80.273438 L 29.726562 80.234375 L 55.917969 80.175781 L 57.167969 76.464844 C 57.832031 74.433594 58.398438 72.714844 58.398438 72.65625 C 58.398438 72.597656 57.539062 72.246094 56.503906 71.894531 C 55.351562 71.503906 54.414062 71.054688 54.160156 70.761719 C 53.359375 69.902344 53.535156 69.375 56.035156 65.15625 C 57.324219 62.988281 58.4375 61.09375 58.496094 60.917969 C 58.574219 60.722656 58.007812 59.355469 57.03125 57.402344 C 56.054688 55.46875 55.429688 53.984375 55.429688 53.613281 C 55.429688 53.242188 56.132812 51.601562 57.304688 49.257812 C 58.339844 47.207031 59.179688 45.46875 59.179688 45.410156 C 59.179688 45.253906 58.847656 45.292969 50.683594 46.660156 Z M 47.617188 63.125 C 48.242188 63.730469 48.183594 64.53125 47.167969 68.613281 C 46.035156 73.183594 45.976562 73.242188 43.261719 73.242188 C 41.445312 73.242188 41.347656 73.261719 39.648438 74.121094 C 38.691406 74.609375 37.675781 75 37.382812 75 C 36.679688 75 35.742188 74.023438 35.742188 73.28125 C 35.742188 72.382812 36.40625 71.738281 38.359375 70.742188 C 39.921875 69.941406 40.332031 69.824219 41.699219 69.726562 L 43.261719 69.628906 L 43.964844 66.699219 C 44.84375 63.085938 44.84375 63.105469 45.585938 62.773438 C 46.308594 62.460938 47.011719 62.578125 47.617188 63.125 Z M 47.617188 63.125 "/>
<path style=" stroke:none;fill-rule:nonzero;fill:rgb(0%,0%,0%);fill-opacity:1;" d="M 60.351562 56.152344 C 60.351562 56.210938 60.839844 57.226562 61.425781 58.398438 C 62.011719 59.570312 62.5 60.703125 62.5 60.898438 C 62.5 61.09375 61.542969 62.851562 60.351562 64.824219 C 59.179688 66.777344 58.203125 68.457031 58.203125 68.554688 C 58.203125 68.632812 59.042969 69.003906 60.058594 69.335938 C 62.070312 70 62.5 70.371094 62.5 71.40625 C 62.5 71.757812 61.894531 73.808594 61.132812 75.976562 C 60.390625 78.144531 59.765625 80 59.765625 80.097656 C 59.765625 80.195312 67.402344 80.273438 78.125 80.273438 L 96.484375 80.273438 L 96.484375 72.265625 L 95.566406 72.636719 C 95.039062 72.832031 93.515625 73.457031 92.128906 74.003906 C 90.761719 74.550781 89.414062 75 89.121094 75 C 88.691406 75 87.792969 74.199219 84.492188 70.917969 L 80.390625 66.816406 L 80.3125 64.960938 C 80.253906 63.925781 80.175781 63.085938 80.097656 63.085938 C 80.039062 63.085938 78.984375 63.359375 77.753906 63.671875 C 74.179688 64.609375 74.707031 64.824219 70.507812 60.644531 L 66.894531 57.050781 L 63.828125 56.542969 C 60.566406 56.015625 60.351562 55.996094 60.351562 56.152344 Z M 60.351562 56.152344 "/>
<path style=" stroke:none;fill-rule:nonzero;fill:rgb(0%,0%,0%);fill-opacity:1;" d="M 0 87.167969 C 0 90.644531 0.234375 91.953125 1.09375 93.574219 C 2.246094 95.664062 4.785156 97.519531 7.1875 98.027344 C 8.652344 98.339844 91.347656 98.339844 92.8125 98.027344 C 94.472656 97.675781 96.132812 96.796875 97.304688 95.605469 C 99.472656 93.417969 100 91.777344 100 87.167969 L 100 83.984375 L 69.726562 83.984375 L 69.726562 84.707031 C 69.726562 88.085938 68.359375 90.605469 65.78125 92.011719 L 64.550781 92.675781 L 35.449219 92.675781 L 34.21875 92.011719 C 31.835938 90.722656 30.703125 88.886719 30.390625 85.898438 L 30.195312 83.984375 L 0 83.984375 Z M 7.890625 87.695312 C 9.023438 88.125 9.238281 89.84375 8.261719 90.625 C 7.304688 91.367188 6.015625 91.054688 5.546875 89.941406 C 4.921875 88.4375 6.328125 87.089844 7.890625 87.695312 Z M 13.691406 88.066406 C 14.84375 89.21875 14.121094 90.996094 12.5 90.996094 C 11.445312 90.996094 10.742188 90.253906 10.742188 89.160156 C 10.742188 88.417969 11.71875 87.5 12.5 87.5 C 12.929688 87.5 13.300781 87.675781 13.691406 88.066406 Z M 24.433594 88.066406 C 24.824219 88.457031 25 88.828125 25 89.257812 C 25 89.6875 24.824219 90.058594 24.433594 90.449219 L 23.867188 91.015625 L 20.546875 91.015625 C 17.519531 91.015625 17.1875 90.976562 16.738281 90.625 C 16.464844 90.410156 16.191406 89.980469 16.113281 89.667969 C 15.957031 88.964844 16.445312 87.949219 17.050781 87.695312 C 17.285156 87.597656 18.90625 87.519531 20.664062 87.519531 L 23.867188 87.5 Z M 24.433594 88.066406 "/>
<path style=" stroke:none;fill-rule:nonzero;fill:rgb(0%,0%,0%);fill-opacity:1;" d="M 33.984375 85.292969 C 33.984375 86.875 34.355469 87.714844 35.410156 88.554688 L 36.171875 89.160156 L 63.828125 89.160156 L 64.589844 88.554688 C 65.644531 87.714844 66.015625 86.875 66.015625 85.292969 L 66.015625 83.984375 L 33.984375 83.984375 Z M 33.984375 85.292969 "/>
</g>
</svg>
