<?xml version="1.0" encoding="UTF-8"?>
<svg xmlns="http://www.w3.org/2000/svg" xmlns:xlink="http://www.w3.org/1999/xlink" width="100px" height="px" viewBox="0 0 100 100" version="1.1">
<g id="surface1">
<path style=" stroke:none;fill-rule:nonzero;fill:rgb(0%,0%,0%);fill-opacity:1;" d="M 7.421875 15.351562 C 4.902344 16.035156 2.519531 17.96875 1.269531 20.351562 C -0.0390625 22.851562 0 21.582031 0 50.136719 C 0 68.105469 0.0585938 76.269531 0.214844 76.992188 C 0.761719 79.648438 2.890625 82.5 5.253906 83.769531 C 7.65625 85.039062 4.492188 84.960938 50 84.960938 C 95.507812 84.960938 92.34375 85.039062 94.746094 83.769531 C 97.109375 82.5 99.238281 79.648438 99.785156 76.992188 C 100.078125 75.546875 100.078125 24.453125 99.785156 23.007812 C 99.238281 20.351562 97.109375 17.5 94.746094 16.230469 C 92.34375 14.960938 95.527344 15.039062 49.902344 15.058594 C 14.121094 15.058594 8.359375 15.097656 7.421875 15.351562 Z M 25 35.058594 L 25 40.039062 L 15.039062 40.039062 L 15.039062 30.078125 L 25 30.078125 Z M 40.039062 35.058594 L 40.039062 40.039062 L 30.078125 40.039062 L 30.078125 30.078125 L 40.039062 30.078125 Z M 55.039062 35 L 54.980469 39.941406 L 45.019531 39.941406 L 44.960938 35 L 44.921875 30.078125 L 55.078125 30.078125 Z M 69.921875 35.058594 L 69.921875 40.039062 L 59.960938 40.039062 L 59.960938 30.078125 L 69.921875 30.078125 Z M 84.960938 35.058594 L 84.960938 40.039062 L 75 40.039062 L 75 30.078125 L 84.960938 30.078125 Z M 25 50 L 25 55.078125 L 15.039062 55.078125 L 15.039062 44.921875 L 25 44.921875 Z M 39.941406 50 L 39.941406 54.980469 L 35.019531 55.039062 L 30.078125 55.078125 L 30.078125 44.921875 L 35.019531 44.960938 L 39.941406 45.019531 Z M 54.980469 50 L 54.980469 54.980469 L 45.019531 54.980469 L 44.960938 50.195312 C 44.941406 47.578125 44.960938 45.3125 45.019531 45.175781 C 45.078125 44.960938 46.171875 44.921875 50.039062 44.960938 L 54.980469 45.019531 Z M 69.921875 50 L 69.921875 55.078125 L 65 55.039062 L 60.058594 54.980469 L 60 50.195312 C 59.980469 47.578125 60 45.3125 60.058594 45.175781 C 60.117188 44.980469 61.269531 44.921875 65.039062 44.921875 L 69.921875 44.921875 Z M 84.960938 50 L 84.960938 55.078125 L 75 55.078125 L 75 44.921875 L 84.960938 44.921875 Z M 69.921875 70.019531 L 69.921875 75 L 30.078125 75 L 30.078125 65.039062 L 69.921875 65.039062 Z M 69.921875 70.019531 "/>
</g>
</svg>
