<?xml version="1.0" encoding="UTF-8"?>
<svg xmlns="http://www.w3.org/2000/svg" xmlns:xlink="http://www.w3.org/1999/xlink" width="100px" height="px" viewBox="0 0 100 100" version="1.1">
<g id="surface1">
<path style=" stroke:none;fill-rule:nonzero;fill:rgb(0%,0%,0%);fill-opacity:1;" d="M 3.964844 4.882812 C 3.730469 4.980469 3.378906 5.292969 3.183594 5.585938 C 2.871094 6.054688 2.832031 6.679688 2.773438 10.351562 C 2.695312 15.175781 2.773438 16.015625 3.417969 16.757812 L 3.867188 17.285156 L 11.523438 17.402344 L 11.523438 29.296875 L 9.179688 29.296875 C 6.542969 29.296875 5.878906 29.492188 5.488281 30.429688 C 5.3125 30.820312 5.273438 32.421875 5.3125 35.898438 L 5.371094 40.820312 L 5.917969 41.347656 C 6.445312 41.875 6.523438 41.894531 8.984375 41.953125 L 11.523438 42.03125 L 11.523438 45.703125 L 9.179688 45.703125 C 7.792969 45.703125 6.640625 45.800781 6.347656 45.9375 C 5.253906 46.425781 5.273438 46.074219 5.273438 60.9375 C 5.273438 75.605469 5.253906 75.449219 6.230469 75.976562 C 6.445312 76.074219 7.714844 76.171875 9.0625 76.171875 L 11.523438 76.171875 L 11.523438 85.117188 C 11.523438 94.863281 11.503906 94.628906 12.65625 95.097656 C 13.046875 95.273438 14.667969 95.3125 18.144531 95.273438 L 23.085938 95.214844 L 24.023438 94.121094 L 24.023438 5.878906 L 23.085938 4.785156 L 13.730469 4.746094 C 8.574219 4.726562 4.199219 4.785156 3.964844 4.882812 Z M 3.964844 4.882812 "/>
<path style=" stroke:none;fill-rule:nonzero;fill:rgb(0%,0%,0%);fill-opacity:1;" d="M 64.824219 6.152344 C 64.160156 6.523438 63.867188 7.363281 63.867188 8.90625 L 63.867188 10.15625 L 88.476562 10.15625 L 88.476562 8.574219 C 88.476562 7.089844 88.4375 6.972656 87.910156 6.425781 L 87.34375 5.859375 L 76.328125 5.859375 C 67.148438 5.878906 65.253906 5.917969 64.824219 6.152344 Z M 64.824219 6.152344 "/>
<path style=" stroke:none;fill-rule:nonzero;fill:rgb(0%,0%,0%);fill-opacity:1;" d="M 27.929688 40.136719 L 27.929688 66.40625 L 61.777344 66.40625 C 94.980469 66.40625 95.625 66.40625 96.230469 66.015625 C 96.660156 65.761719 96.914062 65.410156 97.070312 64.863281 C 97.207031 64.335938 97.246094 56.523438 97.226562 39.707031 C 97.167969 12.363281 97.285156 14.492188 95.761719 14.082031 C 95.253906 13.925781 84.179688 13.867188 61.484375 13.867188 L 27.929688 13.867188 Z M 50.3125 22.128906 C 50.976562 22.890625 50.957031 24.003906 50.273438 24.6875 L 49.746094 25.195312 L 34.609375 25.195312 L 34.101562 24.589844 C 33.554688 23.945312 33.457031 23.203125 33.867188 22.480469 C 34.414062 21.503906 34.511719 21.484375 42.441406 21.542969 L 49.84375 21.582031 Z M 71.09375 21.679688 C 74.003906 22.226562 76.660156 24.511719 77.539062 27.226562 L 77.773438 27.96875 L 79.667969 26.09375 C 81.640625 24.121094 82.011719 23.945312 83.164062 24.296875 C 83.886719 24.53125 85.3125 26.640625 85.761719 28.164062 C 86.328125 30.019531 86.230469 32.246094 85.507812 33.828125 L 85 34.941406 L 90.46875 35.058594 L 90.957031 35.625 C 91.40625 36.171875 91.445312 36.328125 91.367188 37.675781 C 91.191406 40.585938 89.394531 43.144531 86.582031 44.492188 L 85.136719 45.175781 L 86.992188 47.070312 C 88.691406 48.808594 88.867188 49.042969 88.867188 49.707031 C 88.867188 51.640625 84.726562 53.769531 81.601562 53.4375 C 80.644531 53.339844 79.824219 53.105469 78.28125 52.441406 C 77.949219 52.304688 77.929688 52.5 77.929688 55.039062 L 77.929688 57.773438 L 77.304688 58.300781 C 76.71875 58.808594 76.582031 58.828125 75.3125 58.730469 C 72.480469 58.496094 69.785156 56.582031 68.496094 53.90625 L 67.851562 52.558594 L 66.308594 54.101562 C 64.570312 55.839844 63.75 56.347656 62.890625 56.152344 C 62.128906 55.976562 61.054688 54.726562 60.273438 53.125 C 59.707031 51.933594 59.667969 51.71875 59.667969 49.707031 C 59.667969 47.773438 59.726562 47.441406 60.195312 46.425781 L 60.722656 45.3125 L 58.105469 45.3125 C 55.488281 45.3125 55.46875 45.3125 54.863281 44.765625 C 54.296875 44.257812 54.238281 44.121094 54.277344 43.007812 C 54.316406 40.898438 55.15625 39.003906 56.757812 37.421875 C 57.65625 36.542969 59.707031 35.351562 60.332031 35.351562 C 60.507812 35.351562 59.902344 34.609375 58.945312 33.632812 C 57.089844 31.757812 56.835938 31.367188 56.835938 30.449219 C 56.835938 29.179688 59.511719 27.382812 62.070312 26.933594 C 63.457031 26.679688 65.253906 26.914062 66.679688 27.519531 L 67.539062 27.890625 L 67.617188 25.410156 C 67.65625 23.4375 67.753906 22.832031 68.027344 22.402344 C 68.613281 21.503906 69.316406 21.347656 71.09375 21.679688 Z M 50.3125 30.527344 C 50.976562 31.289062 50.957031 32.402344 50.273438 33.085938 L 49.746094 33.59375 L 34.726562 33.59375 L 34.160156 33.027344 C 33.261719 32.109375 33.417969 30.78125 34.53125 30.175781 C 34.980469 29.941406 36.191406 29.902344 42.441406 29.941406 L 49.84375 29.980469 Z M 50.214844 38.847656 C 51.035156 39.667969 51.015625 40.78125 50.175781 41.484375 L 49.570312 41.992188 L 34.726562 41.992188 L 34.160156 41.425781 C 33.75 40.996094 33.59375 40.664062 33.59375 40.136719 C 33.59375 39.609375 33.75 39.277344 34.160156 38.847656 L 34.726562 38.28125 L 49.648438 38.28125 Z M 50.214844 47.246094 C 50.996094 48.046875 50.996094 49.023438 50.214844 49.824219 L 49.648438 50.390625 L 34.726562 50.390625 L 34.160156 49.824219 C 33.75 49.394531 33.59375 49.0625 33.59375 48.535156 C 33.59375 48.007812 33.75 47.675781 34.160156 47.246094 L 34.726562 46.679688 L 49.648438 46.679688 Z M 50.214844 55.644531 C 50.996094 56.445312 50.996094 57.421875 50.214844 58.222656 L 49.648438 58.789062 L 34.726562 58.789062 L 34.160156 58.222656 C 33.75 57.792969 33.59375 57.460938 33.59375 56.933594 C 33.59375 56.40625 33.75 56.074219 34.160156 55.644531 L 34.726562 55.078125 L 49.648438 55.078125 Z M 50.214844 55.644531 "/>
<path style=" stroke:none;fill-rule:nonzero;fill:rgb(0%,0%,0%);fill-opacity:1;" d="M 70.898438 35.566406 C 69.804688 36.054688 68.847656 36.953125 68.300781 37.988281 C 67.734375 39.101562 67.714844 41.210938 68.300781 42.304688 C 68.847656 43.339844 69.824219 44.296875 70.800781 44.746094 C 71.835938 45.234375 73.847656 45.234375 74.902344 44.746094 C 76.035156 44.238281 77.265625 42.8125 77.617188 41.582031 C 78.007812 40.3125 78.007812 39.960938 77.636719 38.75 C 76.796875 35.9375 73.515625 34.375 70.898438 35.566406 Z M 70.898438 35.566406 "/>
<path style=" stroke:none;fill-rule:nonzero;fill:rgb(0%,0%,0%);fill-opacity:1;" d="M 68.300781 70.058594 L 40.195312 70.117188 L 40.273438 73.261719 L 40.332031 76.40625 L 40.976562 76.972656 L 41.601562 77.539062 L 68.730469 77.539062 C 95.742188 77.539062 95.839844 77.539062 96.347656 77.148438 C 97.070312 76.5625 97.265625 75.644531 97.265625 72.597656 C 97.265625 69.941406 97.265625 69.921875 96.835938 69.960938 C 96.582031 70 83.75 70.039062 68.300781 70.058594 Z M 68.300781 70.058594 "/>
</g>
</svg>
