<svg width="50" height="50" viewBox="0 0 50 50" fill="none" xmlns="http://www.w3.org/2000/svg">
<g clip-path="url(#clip0_21_9)">
<path d="M0.107419 37.207C0.400388 39.4629 1.2207 41.5723 2.54883 43.4473C3.28125 44.4922 5.15625 46.3867 6.34765 47.2754C7.99804 48.5156 9.85351 49.3457 11.9727 49.7754C12.7832 49.9414 13.6621 49.9512 25 49.9512C36.3379 49.9512 37.2168 49.9414 38.0273 49.7754C41.084 49.1504 43.418 47.8125 45.8594 45.2832C47.6172 43.4766 48.6328 41.8359 49.3066 39.7754C49.9805 37.6953 49.9512 38.4668 49.9512 25C49.9512 13.6621 49.9414 12.7832 49.7754 11.9727C49.1894 9.0918 48.0273 6.93359 45.8496 4.69727C43.3984 2.16797 41.0742 0.849609 38.0273 0.224609C37.2168 0.0585938 36.3379 0.0488281 25 0.0488281C13.6621 0.0488281 12.7832 0.0585938 11.9727 0.224609C8.92578 0.849609 6.60156 2.16797 4.15039 4.69727C2.03125 6.88477 0.927732 8.88672 0.263669 11.7383C0.0585909 12.6367 0.0585909 12.7734 0.0390596 24.6094C0.029294 31.1914 0.0585909 36.8555 0.107419 37.207ZM4.05273 12.8809C4.3164 11.377 4.9414 9.88281 5.79101 8.73047C6.37695 7.92969 7.80273 6.50391 8.64258 5.86914C9.55078 5.18555 11.0742 4.45312 12.1582 4.17969L13.0371 3.95508H25H36.9629L37.832 4.17969C38.8867 4.44336 40.3125 5.10742 41.2012 5.73242C41.9727 6.28906 43.6035 7.91016 44.209 8.73047C45.0586 9.88281 45.6836 11.377 45.9473 12.8809C46.1621 14.1016 46.1621 35.8984 45.9473 37.1191C45.6836 38.6328 45.0488 40.1465 44.209 41.2695C43.584 42.0898 42.168 43.5156 41.3574 44.1309C40.4492 44.8145 38.9258 45.5469 37.8418 45.8203L36.9629 46.0449H25H13.0371L12.168 45.8203C11.1133 45.5566 9.6875 44.8926 8.79883 44.2676C8.03711 43.7207 6.39648 42.0898 5.78125 41.2598C4.9707 40.1562 4.3164 38.6133 4.05273 37.1777C3.84765 36.0742 3.84765 14.0137 4.05273 12.8809Z" fill="#E34136"/>
<path d="M15.4492 23.6719C15.6054 24.2285 16.25 24.8437 16.8359 24.9902C17.8613 25.2441 18.0957 25.0977 20.7715 22.4316L23.0469 20.166V27.5879C23.0469 34.5508 23.0664 35.0293 23.2324 35.4004C23.8086 36.6895 25.4297 36.9824 26.3867 35.9668C26.9726 35.3516 26.9531 35.6543 26.9531 27.5684V20.166L29.2187 22.4316C30.4687 23.6719 31.6211 24.7559 31.7871 24.834C32.5976 25.2344 33.3984 25.0977 34.0332 24.4629C34.6875 23.8184 34.8047 23.0078 34.375 22.168C34.2773 21.9824 32.3535 20 30.1074 17.7539C25.8398 13.5059 25.8105 13.4766 25 13.4766C24.1894 13.4766 24.1601 13.5059 19.8926 17.7539C17.6465 20 15.7226 21.9824 15.625 22.1875C15.3808 22.6465 15.3125 23.1934 15.4492 23.6719Z" fill="#E34136"/>
</g>
<defs>
<clipPath id="clip0_21_9">
<rect width="50" height="50" fill="white" transform="translate(0 50) rotate(-90)"/>
</clipPath>
</defs>
</svg>
