<svg width="35" height="35" viewBox="0 0 35 35" fill="none" xmlns="http://www.w3.org/2000/svg">
<rect width="35" height="35" rx="17.5" fill="#E34136"/>
<path d="M10.3389 12.0469V22H8.29492V12.0469H10.3389ZM13.4014 12.0469V13.6533H5.28027V12.0469H13.4014ZM17.209 22.1367C16.6348 22.1367 16.1198 22.0456 15.6641 21.8633C15.2083 21.6764 14.821 21.4189 14.502 21.0908C14.1875 20.7627 13.946 20.3822 13.7773 19.9492C13.6087 19.5117 13.5244 19.0469 13.5244 18.5547V18.2812C13.5244 17.7207 13.6042 17.208 13.7637 16.7432C13.9232 16.2783 14.151 15.875 14.4473 15.5332C14.748 15.1914 15.1126 14.9294 15.541 14.7471C15.9694 14.5602 16.4525 14.4668 16.9902 14.4668C17.5143 14.4668 17.9792 14.5534 18.3848 14.7266C18.7904 14.8997 19.1299 15.1458 19.4033 15.4648C19.6813 15.7839 19.891 16.1667 20.0322 16.6133C20.1735 17.0553 20.2441 17.5475 20.2441 18.0898V18.9102H14.3652V17.5977H18.3096V17.4473C18.3096 17.1738 18.2594 16.93 18.1592 16.7158C18.0635 16.4971 17.9176 16.3239 17.7217 16.1963C17.5257 16.0687 17.2751 16.0049 16.9697 16.0049C16.71 16.0049 16.4867 16.0618 16.2998 16.1758C16.113 16.2897 15.9603 16.4492 15.8418 16.6543C15.7279 16.8594 15.6413 17.1009 15.582 17.3789C15.5273 17.6523 15.5 17.9531 15.5 18.2812V18.5547C15.5 18.8509 15.541 19.1243 15.623 19.375C15.7096 19.6257 15.8304 19.8421 15.9854 20.0244C16.1449 20.2067 16.3363 20.348 16.5596 20.4482C16.7874 20.5485 17.0449 20.5986 17.332 20.5986C17.6875 20.5986 18.0179 20.5303 18.3232 20.3936C18.6331 20.2523 18.8997 20.0404 19.123 19.7578L20.0801 20.7969C19.9251 21.0202 19.7132 21.2344 19.4443 21.4395C19.18 21.6445 18.861 21.8132 18.4873 21.9453C18.1136 22.0729 17.6875 22.1367 17.209 22.1367ZM22.9512 14.6035L24.1748 16.8525L25.4326 14.6035H27.5312L25.4395 18.2197L27.627 22H25.5215L24.1885 19.6211L22.8555 22H20.75L22.9375 18.2197L20.8457 14.6035H22.9512ZM28.584 21.0498C28.584 20.7581 28.6842 20.5143 28.8848 20.3184C29.0898 20.1224 29.361 20.0244 29.6982 20.0244C30.0355 20.0244 30.3044 20.1224 30.5049 20.3184C30.71 20.5143 30.8125 20.7581 30.8125 21.0498C30.8125 21.3415 30.71 21.5853 30.5049 21.7812C30.3044 21.9772 30.0355 22.0752 29.6982 22.0752C29.361 22.0752 29.0898 21.9772 28.8848 21.7812C28.6842 21.5853 28.584 21.3415 28.584 21.0498Z" fill="black"/>
</svg>
