<svg width="63" height="63" viewBox="0 0 63 63" fill="none" xmlns="http://www.w3.org/2000/svg">
<rect width="63" height="63" rx="31.5" fill="#D9D9D9"/>
<rect x="6" y="37" width="50" height="10.9524" fill="#E34136"/>
<path d="M12.0508 39.3125V45H10.8828V39.3125H12.0508ZM13.8008 39.3125V40.2305H9.16016V39.3125H13.8008ZM15.9766 45.0781C15.6484 45.0781 15.3542 45.026 15.0938 44.9219C14.8333 44.8151 14.612 44.668 14.4297 44.4805C14.25 44.293 14.112 44.0755 14.0156 43.8281C13.9193 43.5781 13.8711 43.3125 13.8711 43.0312V42.875C13.8711 42.5547 13.9167 42.2617 14.0078 41.9961C14.099 41.7305 14.2292 41.5 14.3984 41.3047C14.5703 41.1094 14.7786 40.9596 15.0234 40.8555C15.2682 40.7487 15.5443 40.6953 15.8516 40.6953C16.151 40.6953 16.4167 40.7448 16.6484 40.8438C16.8802 40.9427 17.0742 41.0833 17.2305 41.2656C17.3893 41.4479 17.5091 41.6667 17.5898 41.9219C17.6706 42.1745 17.7109 42.4557 17.7109 42.7656V43.2344H14.3516V42.4844H16.6055V42.3984C16.6055 42.2422 16.5768 42.1029 16.5195 41.9805C16.4648 41.8555 16.3815 41.7565 16.2695 41.6836C16.1576 41.6107 16.0143 41.5742 15.8398 41.5742C15.6914 41.5742 15.5638 41.6068 15.457 41.6719C15.3503 41.737 15.263 41.8281 15.1953 41.9453C15.1302 42.0625 15.0807 42.2005 15.0469 42.3594C15.0156 42.5156 15 42.6875 15 42.875V43.0312C15 43.2005 15.0234 43.3568 15.0703 43.5C15.1198 43.6432 15.1888 43.7669 15.2773 43.8711C15.3685 43.9753 15.4779 44.056 15.6055 44.1133C15.7357 44.1706 15.8828 44.1992 16.0469 44.1992C16.25 44.1992 16.4388 44.1602 16.6133 44.082C16.7904 44.0013 16.9427 43.8802 17.0703 43.7188L17.6172 44.3125C17.5286 44.4401 17.4076 44.5625 17.2539 44.6797C17.1029 44.7969 16.9206 44.8932 16.707 44.9688C16.4935 45.0417 16.25 45.0781 15.9766 45.0781ZM19.2578 40.7734L19.957 42.0586L20.6758 40.7734H21.875L20.6797 42.8398L21.9297 45H20.7266L19.9648 43.6406L19.2031 45H18L19.25 42.8398L18.0547 40.7734H19.2578ZM22.4766 44.457C22.4766 44.2904 22.5339 44.151 22.6484 44.0391C22.7656 43.9271 22.9206 43.8711 23.1133 43.8711C23.306 43.8711 23.4596 43.9271 23.5742 44.0391C23.6914 44.151 23.75 44.2904 23.75 44.457C23.75 44.6237 23.6914 44.763 23.5742 44.875C23.4596 44.987 23.306 45.043 23.1133 45.043C22.9206 45.043 22.7656 44.987 22.6484 44.875C22.5339 44.763 22.4766 44.6237 22.4766 44.457ZM27.3398 39.3125H28.332L29.793 43.4883L31.2539 39.3125H32.2461L30.1914 45H29.3945L27.3398 39.3125ZM26.8047 39.3125H27.793L27.9727 43.3828V45H26.8047V39.3125ZM31.793 39.3125H32.7852V45H31.6133V43.3828L31.793 39.3125ZM36.0234 44.0469V42.1641C36.0234 42.0286 36.0013 41.9128 35.957 41.8164C35.9128 41.7174 35.8438 41.6406 35.75 41.5859C35.6589 41.5312 35.5404 41.5039 35.3945 41.5039C35.2695 41.5039 35.1615 41.526 35.0703 41.5703C34.9792 41.612 34.9089 41.6732 34.8594 41.7539C34.8099 41.832 34.7852 41.9245 34.7852 42.0312H33.6602C33.6602 41.8516 33.7018 41.681 33.7852 41.5195C33.8685 41.3581 33.9896 41.2161 34.1484 41.0938C34.3073 40.9688 34.4961 40.8711 34.7148 40.8008C34.9362 40.7305 35.1836 40.6953 35.457 40.6953C35.7852 40.6953 36.0768 40.75 36.332 40.8594C36.5872 40.9688 36.7878 41.1328 36.9336 41.3516C37.082 41.5703 37.1562 41.8438 37.1562 42.1719V43.9805C37.1562 44.2122 37.1706 44.4023 37.1992 44.5508C37.2279 44.6966 37.2695 44.8242 37.3242 44.9336V45H36.1875C36.1328 44.8854 36.0911 44.7422 36.0625 44.5703C36.0365 44.3958 36.0234 44.2214 36.0234 44.0469ZM36.1719 42.4258L36.1797 43.0625H35.5508C35.4023 43.0625 35.2734 43.0794 35.1641 43.1133C35.0547 43.1471 34.9648 43.1953 34.8945 43.2578C34.8242 43.3177 34.7721 43.388 34.7383 43.4688C34.707 43.5495 34.6914 43.638 34.6914 43.7344C34.6914 43.8307 34.7135 43.918 34.7578 43.9961C34.8021 44.0716 34.8659 44.1315 34.9492 44.1758C35.0326 44.2174 35.1302 44.2383 35.2422 44.2383C35.4115 44.2383 35.5586 44.2044 35.6836 44.1367C35.8086 44.069 35.9049 43.9857 35.9727 43.8867C36.043 43.7878 36.0794 43.694 36.082 43.6055L36.3789 44.082C36.3372 44.1888 36.2799 44.2995 36.207 44.4141C36.1367 44.5286 36.0469 44.6367 35.9375 44.7383C35.8281 44.8372 35.6966 44.9193 35.543 44.9844C35.3893 45.0469 35.207 45.0781 34.9961 45.0781C34.7279 45.0781 34.4844 45.0247 34.2656 44.918C34.0495 44.8086 33.8776 44.6589 33.75 44.4688C33.625 44.276 33.5625 44.0573 33.5625 43.8125C33.5625 43.5911 33.6042 43.3945 33.6875 43.2227C33.7708 43.0508 33.8932 42.9062 34.0547 42.7891C34.2188 42.6693 34.4232 42.5794 34.668 42.5195C34.9128 42.457 35.1966 42.4258 35.5195 42.4258H36.1719ZM39.7695 44.1992C39.9076 44.1992 40.0299 44.1732 40.1367 44.1211C40.2435 44.0664 40.3268 43.9909 40.3867 43.8945C40.4492 43.7956 40.4818 43.6797 40.4844 43.5469H41.543C41.5404 43.8438 41.4609 44.1081 41.3047 44.3398C41.1484 44.569 40.9388 44.75 40.6758 44.8828C40.4128 45.013 40.1185 45.0781 39.793 45.0781C39.4648 45.0781 39.1784 45.0234 38.9336 44.9141C38.6914 44.8047 38.4896 44.6536 38.3281 44.4609C38.1667 44.2656 38.0456 44.0391 37.9648 43.7812C37.8841 43.5208 37.8438 43.2422 37.8438 42.9453V42.832C37.8438 42.5326 37.8841 42.2539 37.9648 41.9961C38.0456 41.7357 38.1667 41.5091 38.3281 41.3164C38.4896 41.1211 38.6914 40.9688 38.9336 40.8594C39.1758 40.75 39.4596 40.6953 39.7852 40.6953C40.1315 40.6953 40.4349 40.7617 40.6953 40.8945C40.9583 41.0273 41.1641 41.2174 41.3125 41.4648C41.4635 41.7096 41.5404 42 41.543 42.3359H40.4844C40.4818 42.1953 40.4518 42.0677 40.3945 41.9531C40.3398 41.8385 40.2591 41.7474 40.1523 41.6797C40.0482 41.6094 39.9193 41.5742 39.7656 41.5742C39.6016 41.5742 39.4674 41.6094 39.3633 41.6797C39.2591 41.7474 39.1784 41.8411 39.1211 41.9609C39.0638 42.0781 39.0234 42.2122 39 42.3633C38.9792 42.5117 38.9688 42.668 38.9688 42.832V42.9453C38.9688 43.1094 38.9792 43.2669 39 43.418C39.0208 43.569 39.0599 43.7031 39.1172 43.8203C39.1771 43.9375 39.2591 44.0299 39.3633 44.0977C39.4674 44.1654 39.6029 44.1992 39.7695 44.1992ZM44.3477 40.7734V45H43.2188V40.7734H44.3477ZM45.707 40.7734V41.6445H41.8789V40.7734H45.707ZM47.9531 45.0781C47.625 45.0781 47.3307 45.026 47.0703 44.9219C46.8099 44.8151 46.5885 44.668 46.4062 44.4805C46.2266 44.293 46.0885 44.0755 45.9922 43.8281C45.8958 43.5781 45.8477 43.3125 45.8477 43.0312V42.875C45.8477 42.5547 45.8932 42.2617 45.9844 41.9961C46.0755 41.7305 46.2057 41.5 46.375 41.3047C46.5469 41.1094 46.7552 40.9596 47 40.8555C47.2448 40.7487 47.5208 40.6953 47.8281 40.6953C48.1276 40.6953 48.3932 40.7448 48.625 40.8438C48.8568 40.9427 49.0508 41.0833 49.207 41.2656C49.3659 41.4479 49.4857 41.6667 49.5664 41.9219C49.6471 42.1745 49.6875 42.4557 49.6875 42.7656V43.2344H46.3281V42.4844H48.582V42.3984C48.582 42.2422 48.5534 42.1029 48.4961 41.9805C48.4414 41.8555 48.3581 41.7565 48.2461 41.6836C48.1341 41.6107 47.9909 41.5742 47.8164 41.5742C47.668 41.5742 47.5404 41.6068 47.4336 41.6719C47.3268 41.737 47.2396 41.8281 47.1719 41.9453C47.1068 42.0625 47.0573 42.2005 47.0234 42.3594C46.9922 42.5156 46.9766 42.6875 46.9766 42.875V43.0312C46.9766 43.2005 47 43.3568 47.0469 43.5C47.0964 43.6432 47.1654 43.7669 47.2539 43.8711C47.3451 43.9753 47.4544 44.056 47.582 44.1133C47.7122 44.1706 47.8594 44.1992 48.0234 44.1992C48.2266 44.1992 48.4154 44.1602 48.5898 44.082C48.7669 44.0013 48.9193 43.8802 49.0469 43.7188L49.5938 44.3125C49.5052 44.4401 49.3841 44.5625 49.2305 44.6797C49.0794 44.7969 48.8971 44.8932 48.6836 44.9688C48.4701 45.0417 48.2266 45.0781 47.9531 45.0781ZM51.4531 41.5859V46.625H50.3281V40.7734H51.3711L51.4531 41.5859ZM54.1289 42.8398V42.9219C54.1289 43.2292 54.0924 43.5143 54.0195 43.7773C53.9492 44.0404 53.8451 44.2695 53.707 44.4648C53.569 44.6576 53.3971 44.8086 53.1914 44.918C52.9883 45.0247 52.7539 45.0781 52.4883 45.0781C52.2305 45.0781 52.0065 45.026 51.8164 44.9219C51.6263 44.8177 51.4661 44.6719 51.3359 44.4844C51.2083 44.2943 51.1055 44.0742 51.0273 43.8242C50.9492 43.5742 50.8893 43.306 50.8477 43.0195V42.8047C50.8893 42.4974 50.9492 42.2161 51.0273 41.9609C51.1055 41.7031 51.2083 41.4805 51.3359 41.293C51.4661 41.1029 51.625 40.9557 51.8125 40.8516C52.0026 40.7474 52.2253 40.6953 52.4805 40.6953C52.7487 40.6953 52.9844 40.7461 53.1875 40.8477C53.3932 40.9492 53.5651 41.0951 53.7031 41.2852C53.8438 41.4753 53.9492 41.7018 54.0195 41.9648C54.0924 42.2279 54.1289 42.5195 54.1289 42.8398ZM53 42.9219V42.8398C53 42.6602 52.9844 42.4948 52.9531 42.3438C52.9245 42.1901 52.8776 42.056 52.8125 41.9414C52.75 41.8268 52.6667 41.7383 52.5625 41.6758C52.4609 41.6107 52.3372 41.5781 52.1914 41.5781C52.0378 41.5781 51.9062 41.6029 51.7969 41.6523C51.6901 41.7018 51.6029 41.7734 51.5352 41.8672C51.4674 41.9609 51.4167 42.0729 51.3828 42.2031C51.349 42.3333 51.3281 42.4805 51.3203 42.6445V43.1875C51.3333 43.3802 51.3698 43.5534 51.4297 43.707C51.4896 43.8581 51.582 43.9779 51.707 44.0664C51.832 44.1549 51.9961 44.1992 52.1992 44.1992C52.3477 44.1992 52.4727 44.1667 52.5742 44.1016C52.6758 44.0339 52.7578 43.9414 52.8203 43.8242C52.8854 43.707 52.931 43.5716 52.957 43.418C52.9857 43.2643 53 43.099 53 42.9219Z" fill="black"/>
<path d="M43.5 32C43.224 32 43 31.776 43 31.5V15.5C43 15.225 42.775 15 42.5 15H19.5C19.225 15 19 15.225 19 15.5V31.5C19 31.776 18.776 32 18.5 32C18.224 32 18 31.776 18 31.5V15.5C18 14.673 18.673 14 19.5 14H42.5C43.327 14 44 14.673 44 15.5V31.5C44 31.776 43.776 32 43.5 32Z" fill="#263238"/>
<path d="M43.5 36H18.5C17.121 36 16 34.879 16 33.5C16 33.224 16.224 33 16.5 33H27.5C27.776 33 28 33.224 28 33.5C28 33.776 27.776 34 27.5 34H17.086C17.292 34.582 17.848 35 18.5 35H43.5C44.152 35 44.708 34.582 44.914 34H34.5C34.224 34 34 33.776 34 33.5C34 33.224 34.224 33 34.5 33H45.5C45.776 33 46 33.224 46 33.5C46 34.879 44.879 36 43.5 36Z" fill="#263238"/>
<path d="M31.899 32H30.1C29.865 32 29.662 31.836 29.612 31.606L29.316 30.253C28.901 30.132 28.502 29.966 28.122 29.757L26.956 30.504C26.758 30.63 26.499 30.603 26.333 30.437L25.062 29.166C24.896 29 24.867 28.74 24.994 28.543L25.741 27.377C25.532 26.997 25.366 26.598 25.245 26.183L23.893 25.887C23.664 25.837 23.5 25.634 23.5 25.399V23.6C23.5 23.365 23.663 23.162 23.893 23.112L25.244 22.816C25.367 22.4 25.533 22.001 25.741 21.622L24.994 20.456C24.867 20.259 24.895 19.999 25.061 19.833L26.332 18.562C26.498 18.396 26.757 18.369 26.955 18.495L28.122 19.242C28.504 19.033 28.903 18.867 29.315 18.747L29.611 17.395C29.662 17.163 29.865 17 30.101 17H31.9C32.135 17 32.338 17.163 32.388 17.394L32.684 18.746C33.097 18.866 33.497 19.032 33.877 19.241L35.044 18.494C35.242 18.368 35.501 18.395 35.667 18.561L36.938 19.832C37.104 19.998 37.132 20.258 37.005 20.455L36.258 21.622C36.467 22.003 36.633 22.402 36.753 22.815L38.106 23.111C38.335 23.161 38.499 23.364 38.499 23.599V25.398C38.499 25.633 38.336 25.836 38.106 25.886L36.753 26.182C36.633 26.594 36.467 26.994 36.258 27.375L37.005 28.542C37.132 28.739 37.104 28.999 36.938 29.165L35.667 30.438C35.5 30.605 35.24 30.631 35.043 30.505L33.877 29.756C33.498 29.965 33.099 30.13 32.684 30.251L32.388 31.605C32.338 31.836 32.135 32 31.899 32ZM30.503 31H31.497L31.772 29.741C31.813 29.553 31.959 29.404 32.146 29.36C32.67 29.238 33.167 29.031 33.625 28.747C33.787 28.646 33.995 28.646 34.159 28.751L35.243 29.447L35.946 28.744L35.251 27.658C35.147 27.496 35.146 27.289 35.246 27.126C35.533 26.662 35.74 26.164 35.86 25.647C35.904 25.459 36.052 25.313 36.241 25.272L37.498 24.997V24.003L36.241 23.728C36.053 23.687 35.904 23.541 35.86 23.354C35.739 22.834 35.532 22.336 35.246 21.874C35.145 21.711 35.147 21.504 35.251 21.342L35.946 20.257L35.243 19.554L34.158 20.249C33.997 20.353 33.789 20.354 33.626 20.254C33.163 19.968 32.665 19.761 32.146 19.64C31.958 19.596 31.813 19.448 31.772 19.26L31.497 18H30.503L30.228 19.258C30.187 19.446 30.041 19.594 29.853 19.638C29.335 19.758 28.837 19.965 28.374 20.252C28.211 20.353 28.003 20.351 27.842 20.247L26.757 19.552L26.054 20.255L26.749 21.34C26.853 21.502 26.854 21.71 26.753 21.873C26.469 22.329 26.262 22.827 26.137 23.353C26.093 23.541 25.946 23.685 25.758 23.726L24.502 24.001V24.995L25.759 25.27C25.947 25.311 26.096 25.457 26.14 25.645C26.262 26.167 26.468 26.665 26.753 27.124C26.855 27.287 26.854 27.495 26.749 27.657L26.054 28.742L26.757 29.445L27.842 28.75C28.005 28.646 28.214 28.646 28.375 28.746C28.834 29.031 29.331 29.237 29.854 29.359C30.042 29.403 30.188 29.551 30.229 29.74L30.503 31ZM30.999 28C29.069 28 27.499 26.43 27.499 24.5C27.499 22.57 29.069 21 30.999 21C32.929 21 34.499 22.57 34.499 24.5C34.499 24.776 34.275 25 33.999 25C33.723 25 33.499 24.776 33.499 24.5C33.499 23.121 32.378 22 30.999 22C29.62 22 28.499 23.121 28.499 24.5C28.499 25.879 29.62 27 30.999 27C31.166 27 31.329 26.983 31.486 26.953C31.754 26.895 32.02 27.075 32.073 27.347C32.127 27.618 31.95 27.881 31.679 27.934C31.46 27.978 31.232 28 30.999 28Z" fill="#263238"/>
<path d="M33.501 27.072C33.7771 27.072 34.001 26.8481 34.001 26.572C34.001 26.2959 33.7771 26.072 33.501 26.072C33.2249 26.072 33.001 26.2959 33.001 26.572C33.001 26.8481 33.2249 27.072 33.501 27.072Z" fill="#263238"/>
</svg>
