<svg width="50" height="50" viewBox="0 0 50 50" fill="none" xmlns="http://www.w3.org/2000/svg">
<path d="M0.0703539 37.2309C0.363826 39.4912 1.18555 41.6047 2.51596 43.4834C3.24964 44.5303 5.12786 46.4286 6.32132 47.319C7.97455 48.5616 9.8332 49.3933 11.956 49.8239C12.7679 49.9902 13.6483 50 25.0057 50C36.3631 50 37.2435 49.9902 38.0555 49.8239C41.1174 49.1977 43.4554 47.8571 45.901 45.3229C47.6618 43.5127 48.6792 41.8689 49.3542 39.8043C50.0292 37.7202 49.9998 38.4932 49.9998 25C49.9998 13.6399 49.99 12.7593 49.8237 11.9472C49.2368 9.06067 48.0727 6.89824 45.8912 4.65753C43.4358 2.12329 41.1076 0.802349 38.0555 0.176126C37.2435 0.00978511 36.3631 3.72529e-07 25.0057 3.72529e-07C13.6483 3.72529e-07 12.7679 0.00978511 11.956 0.176126C8.90387 0.802349 6.57566 2.12329 4.12027 4.65753C1.99749 6.84932 0.892077 8.85519 0.226873 11.7123C0.0214418 12.6125 0.0214418 12.7495 0.00187696 24.6086C-0.00790545 31.2035 0.0214418 36.8787 0.0703539 37.2309ZM4.02245 12.8571C4.28658 11.3503 4.91265 9.85323 5.76372 8.69863C6.35067 7.89628 7.7789 6.46771 8.62019 5.8317C9.52995 5.14677 11.056 4.41292 12.1419 4.13894L13.0223 3.91389H25.0057H36.9892L37.8598 4.13894C38.9163 4.40313 40.3446 5.06849 41.2348 5.69472C42.0076 6.25245 43.6412 7.87671 44.2478 8.69863C45.0988 9.85323 45.7249 11.3503 45.989 12.8571C46.2042 14.0802 46.2042 35.9198 45.989 37.1429C45.7249 38.6595 45.089 40.1761 44.2478 41.3014C43.6217 42.1233 42.2032 43.5519 41.3913 44.1683C40.4815 44.8532 38.9555 45.5871 37.8696 45.8611L36.9892 46.0861H25.0057H13.0223L12.1516 45.8611C11.0951 45.5969 9.66691 44.9315 8.77671 44.3053C8.01368 43.7573 6.37023 42.1233 5.75394 41.2916C4.942 40.1859 4.28658 38.6399 4.02245 37.2016C3.81702 36.0959 3.81702 13.9922 4.02245 12.8571Z" fill="#E34136"/>
<g clip-path="url(#clip0_27_20)">
<path d="M19.3457 14.2965C18.8381 14.4313 17.7689 14.7143 16.9648 14.9254C16.0799 15.1635 15.4016 15.3656 15.2353 15.451C14.4447 15.8463 13.9506 16.7852 14.018 17.7645C14.0584 18.3979 14.9119 20.8281 15.6621 22.4453C17.1984 25.7516 19.4805 28.7479 22.4678 31.3668C24.2107 32.8941 26.1244 34.1744 28.1728 35.1807C29.3184 35.7467 30.356 36.16 31.7486 36.6182L32.7998 36.9596L33.4961 36.9461L34.1924 36.9326L34.5473 36.7619C34.992 36.5508 35.4053 36.151 35.5984 35.7332C35.6793 35.567 35.9937 34.4754 36.3711 33.0424C36.8922 31.0883 37.009 30.6076 36.982 30.4684C36.9146 30.1225 36.8428 30.082 33.7432 28.7029C32.1619 28.0022 30.7738 27.3957 30.657 27.3598C30.2887 27.234 30.2258 27.2744 29.0937 28.402L28.083 29.4037L27.6518 29.0803C26.6365 28.3121 25.9627 27.7236 24.7678 26.5377C23.5369 25.3203 22.6519 24.3275 21.9332 23.3527L21.6232 22.9305L22.616 21.9377C23.1641 21.3897 23.6312 20.882 23.6582 20.8147C23.6807 20.7428 23.7031 20.6215 23.7031 20.5451C23.7031 20.3654 21.0437 14.3639 20.9045 14.2336C20.7787 14.1123 20.59 14.0449 20.4103 14.0494C20.3295 14.0494 19.8533 14.1617 19.3457 14.2965ZM21.0932 17.8408C21.6547 19.0986 22.1398 20.1992 22.1713 20.2801L22.2342 20.4328L21.2189 21.448C20.5855 22.0859 20.1768 22.5262 20.1363 22.6295C20.0285 22.8855 20.1094 23.1102 20.5227 23.6986C22.0949 25.9447 24.9789 28.8377 27.2564 30.4549C27.9887 30.9715 28.1189 31.0164 28.4514 30.8592C28.5367 30.8188 29.0578 30.3381 29.6103 29.7855L30.6121 28.7883L33.0289 29.8664C34.3631 30.4594 35.4637 30.958 35.4861 30.976C35.5131 31.0029 34.6775 34.2553 34.4574 34.965C34.3092 35.4457 33.9184 35.6793 33.3299 35.6389C32.6516 35.5939 30.1359 34.6686 28.5951 33.8959C24.2557 31.7307 20.2756 27.9438 17.7779 23.6133C17.3018 22.7912 16.6594 21.457 16.3 20.5586C15.9002 19.5523 15.3926 18.007 15.3611 17.7061C15.3117 17.2209 15.5812 16.7313 15.9676 16.601C16.3269 16.4752 19.9117 15.5363 19.9926 15.5408C20.0555 15.5498 20.298 16.0529 21.0932 17.8408Z" fill="#E34136"/>
<path d="M25.1361 14.1482C24.7183 14.4268 24.7408 15.0152 25.181 15.2758C25.2978 15.3432 25.4685 15.3656 26.0121 15.3971C27.517 15.4734 28.7883 15.8103 30.109 16.4887C32.0945 17.4994 33.6264 19.0537 34.6191 21.0617C35.248 22.3285 35.6523 23.9996 35.6523 25.3158C35.6523 25.509 35.6793 25.6662 35.7332 25.7695C35.9713 26.2502 36.6721 26.2502 36.9236 25.7695C36.9955 25.6303 37.0045 25.5359 36.982 24.9969C36.8832 22.607 36.0521 20.3609 34.5338 18.4023C34.098 17.8363 33.0514 16.8121 32.4629 16.3719C30.4728 14.885 28.065 14.0449 25.801 14.0449C25.3428 14.0449 25.2709 14.0539 25.1361 14.1482Z" fill="#E34136"/>
<path d="M25.1361 16.8436C24.7183 17.1221 24.7408 17.7105 25.181 17.9711C25.2844 18.0295 25.4685 18.0609 25.8953 18.0924C26.9734 18.1598 27.5844 18.3125 28.5682 18.7482C30.3336 19.5299 31.7891 21.0977 32.4539 22.9395C32.7144 23.6582 32.8043 24.1074 32.8851 25.0373C32.9256 25.527 32.966 25.7516 33.0199 25.8369C33.2939 26.2547 33.9498 26.2143 34.1834 25.7695C34.2553 25.6348 34.2642 25.5404 34.2418 25.0957C34.1115 22.1803 32.5752 19.5883 30.0461 18.0025C28.8377 17.2479 27.1396 16.7447 25.7875 16.7402C25.3428 16.7402 25.2709 16.7492 25.1361 16.8436Z" fill="#E34136"/>
<path d="M25.1406 19.5344C24.7184 19.8174 24.7363 20.4059 25.1766 20.6619C25.2709 20.7158 25.4775 20.7562 25.8234 20.7832C26.9959 20.882 27.9258 21.2953 28.7703 22.1084C29.6193 22.9215 30.1135 23.9861 30.2078 25.2305C30.2348 25.5629 30.2707 25.7561 30.3246 25.8369C30.5178 26.1289 30.9625 26.2232 31.2545 26.0256C31.5555 25.8279 31.6139 25.5539 31.5195 24.7812C31.259 22.6609 29.8844 20.7877 27.9752 19.9521C27.2115 19.6152 26.65 19.485 25.8594 19.449C25.3248 19.4266 25.2889 19.4311 25.1406 19.5344Z" fill="#E34136"/>
</g>
<defs>
<clipPath id="clip0_27_20">
<rect width="23" height="22.9551" fill="white" transform="translate(14 14)"/>
</clipPath>
</defs>
</svg>
