<svg width="50" height="50" viewBox="0 0 50 50" fill="none" xmlns="http://www.w3.org/2000/svg">
<path d="M0.0703539 37.2309C0.363826 39.4912 1.18555 41.6047 2.51596 43.4834C3.24964 44.5303 5.12786 46.4286 6.32132 47.319C7.97455 48.5616 9.8332 49.3933 11.956 49.8239C12.7679 49.9902 13.6483 50 25.0057 50C36.3631 50 37.2435 49.9902 38.0555 49.8239C41.1174 49.1977 43.4554 47.8571 45.901 45.3229C47.6618 43.5127 48.6792 41.8689 49.3542 39.8043C50.0292 37.7202 49.9998 38.4932 49.9998 25C49.9998 13.6399 49.99 12.7593 49.8237 11.9472C49.2368 9.06067 48.0727 6.89824 45.8912 4.65753C43.4358 2.12329 41.1076 0.802349 38.0555 0.176126C37.2435 0.00978511 36.3631 3.72529e-07 25.0057 3.72529e-07C13.6483 3.72529e-07 12.7679 0.00978511 11.956 0.176126C8.90387 0.802349 6.57566 2.12329 4.12027 4.65753C1.99749 6.84932 0.892077 8.85519 0.226873 11.7123C0.0214418 12.6125 0.0214418 12.7495 0.00187696 24.6086C-0.00790545 31.2035 0.0214418 36.8787 0.0703539 37.2309ZM4.02245 12.8571C4.28658 11.3503 4.91265 9.85323 5.76372 8.69863C6.35067 7.89628 7.7789 6.46771 8.62019 5.8317C9.52995 5.14677 11.056 4.41292 12.1419 4.13894L13.0223 3.91389H25.0057H36.9892L37.8598 4.13894C38.9163 4.40313 40.3446 5.06849 41.2348 5.69472C42.0076 6.25245 43.6412 7.87671 44.2478 8.69863C45.0988 9.85323 45.7249 11.3503 45.989 12.8571C46.2042 14.0802 46.2042 35.9198 45.989 37.1429C45.7249 38.6595 45.089 40.1761 44.2478 41.3014C43.6217 42.1233 42.2032 43.5519 41.3913 44.1683C40.4815 44.8532 38.9555 45.5871 37.8696 45.8611L36.9892 46.0861H25.0057H13.0223L12.1516 45.8611C11.0951 45.5969 9.66691 44.9315 8.77671 44.3053C8.01368 43.7573 6.37023 42.1233 5.75394 41.2916C4.942 40.1859 4.28658 38.6399 4.02245 37.2016C3.81702 36.0959 3.81702 13.9922 4.02245 12.8571Z" fill="#E34136"/>
<path d="M16.3404 15.5094C15.5812 15.7115 14.9883 16.318 14.7861 17.0861C14.6828 17.477 14.6873 29.215 14.7861 29.6104C14.9883 30.383 15.5902 30.9805 16.3674 31.1826C16.565 31.2365 16.9064 31.25 17.8273 31.25H19.0268L19.0402 33.1772C19.0537 35.0459 19.0582 35.1088 19.148 35.2301C19.3682 35.5311 19.732 35.6389 20.024 35.4996C20.1094 35.4592 21.3492 34.4889 22.7822 33.3389L25.3877 31.2545L29.8799 31.25C34.7674 31.25 34.6101 31.259 35.1223 30.9984C35.4412 30.8367 35.8365 30.4459 36.0072 30.1314C36.2947 29.5879 36.2812 29.9473 36.2812 23.3438C36.2812 18.1014 36.2723 17.3107 36.2139 17.0772C36.0117 16.3045 35.4098 15.707 34.6326 15.5049C34.2508 15.4061 16.7133 15.4106 16.3404 15.5094ZM34.5113 16.9918C34.5787 17.0412 34.6775 17.14 34.7269 17.2074C34.8213 17.3287 34.8213 17.3422 34.8213 23.3393V29.3498L34.691 29.516C34.4529 29.8305 34.7539 29.8125 29.6373 29.8125C26.7803 29.8125 24.9699 29.8305 24.898 29.8574C24.8352 29.8799 23.8244 30.666 22.6475 31.6094C21.475 32.5482 20.5047 33.3164 20.4957 33.3164C20.4822 33.3164 20.4643 32.6291 20.4598 31.7936C20.4463 30.3336 20.4418 30.2617 20.3519 30.1449C20.3025 30.0775 20.2037 29.9787 20.1363 29.9293C20.0195 29.8395 19.9432 29.835 18.3125 29.8125C16.6818 29.79 16.6055 29.7855 16.4887 29.6957C16.4213 29.6463 16.3225 29.5475 16.273 29.4801C16.1787 29.3588 16.1787 29.3363 16.1652 23.465C16.1607 20.2217 16.1652 17.5084 16.1787 17.4275C16.2102 17.2479 16.3988 17.0188 16.583 16.9379C16.6953 16.8885 18.2766 16.8795 25.5539 16.8885L34.39 16.8975L34.5113 16.9918Z" fill="#E34136"/>
<path d="M19.458 21.2504C19.157 21.3807 18.9863 21.7266 19.0492 22.0635C19.0896 22.2746 19.3143 22.5217 19.5164 22.5801C19.6332 22.616 21.5334 22.625 25.5988 22.616C31.4926 22.6025 31.515 22.6025 31.6363 22.5082C31.8744 22.333 31.9463 22.1893 31.9463 21.9062C31.9463 21.6232 31.8744 21.4795 31.6363 21.3043C31.515 21.21 31.4971 21.21 25.5539 21.201C20.6664 21.192 19.5703 21.201 19.458 21.2504Z" fill="#E34136"/>
<path d="M19.458 24.1254C19.157 24.2557 18.9863 24.6016 19.0492 24.9385C19.0896 25.1496 19.3143 25.3967 19.5164 25.4551C19.6287 25.491 20.6709 25.5 22.7238 25.491C25.7111 25.4775 25.765 25.4775 25.8863 25.3832C26.1244 25.208 26.1963 25.0643 26.1963 24.7813C26.1963 24.4982 26.1244 24.3545 25.8863 24.1793C25.765 24.085 25.7156 24.085 22.6789 24.076C20.1812 24.067 19.5658 24.076 19.458 24.1254Z" fill="#E34136"/>
</svg>
