<svg width="34" height="38" viewBox="0 0 34 38" fill="none" xmlns="http://www.w3.org/2000/svg">
<path d="M2.72136 2.10825C1.45527 2.46467 0.466359 3.53393 0.129232 4.88833C-0.0430773 5.56949 -0.0430773 33.8772 0.129232 34.5584C0.466359 35.9286 1.46276 36.99 2.75133 37.3464C3.1409 37.4493 4.82654 37.4652 16.7983 37.4652C31.6319 37.4652 30.7703 37.489 31.6469 37.0216C32.5159 36.5543 33.3025 35.4613 33.4973 34.4396C33.5573 34.1465 33.5722 30.8437 33.5647 23.4697C33.5423 12.9593 33.5423 12.9197 33.3849 12.7058C33.0928 12.286 32.853 12.1593 32.3811 12.1593C31.9091 12.1593 31.6693 12.286 31.3772 12.7058C31.2198 12.9197 31.2198 12.9751 31.1824 23.5252C31.1449 34.0752 31.1449 34.1307 30.9876 34.3445C30.9052 34.4633 30.7404 34.6376 30.628 34.7247L30.4257 34.891H16.7983H3.17087L2.96859 34.7247C2.85622 34.6376 2.6914 34.4633 2.60899 34.3445L2.45166 34.1307V19.7234V5.31603L2.60899 5.10218C2.6914 4.98337 2.85622 4.80912 2.96859 4.722C3.17087 4.55567 3.22331 4.55567 13.2023 4.51607C23.1812 4.47647 23.2337 4.47647 23.436 4.31014C23.833 4.00124 23.9529 3.74778 23.9529 3.24879C23.9529 2.7498 23.833 2.49635 23.436 2.18745C23.2337 2.02112 23.2037 2.02112 13.1798 2.00528C4.5868 1.98944 3.06598 2.00528 2.72136 2.10825Z" fill="#E34136"/>
<line x1="1" y1="-1" x2="34.5234" y2="-1" transform="matrix(0.68717 -0.726497 0.68717 0.726497 9.58939 27.8077)" stroke="#E34136" stroke-width="2" stroke-linecap="round"/>
<line x1="1" y1="-1" x2="24.6558" y2="-1" transform="matrix(0.68717 0.726497 -0.68717 0.726497 7.67151 10.5574)" stroke="#E34136" stroke-width="2" stroke-linecap="round"/>
</svg>
