<svg width="194" height="60" viewBox="0 0 194 60" fill="none" xmlns="http://www.w3.org/2000/svg">
<rect width="78" height="60" fill="#E34136"/>
<path d="M23.4404 19.6719V41H19.0605V19.6719H23.4404ZM30.0029 19.6719V23.1143H12.6006V19.6719H30.0029ZM38.1621 41.293C36.9316 41.293 35.8281 41.0977 34.8516 40.707C33.875 40.3066 33.0449 39.7549 32.3613 39.0518C31.6875 38.3486 31.1699 37.5332 30.8086 36.6055C30.4473 35.668 30.2666 34.6719 30.2666 33.6172V33.0312C30.2666 31.8301 30.4375 30.7314 30.7793 29.7354C31.1211 28.7393 31.6094 27.875 32.2441 27.1426C32.8887 26.4102 33.6699 25.8486 34.5879 25.458C35.5059 25.0576 36.541 24.8574 37.6934 24.8574C38.8164 24.8574 39.8125 25.043 40.6816 25.4141C41.5508 25.7852 42.2783 26.3125 42.8643 26.9961C43.46 27.6797 43.9092 28.5 44.2119 29.457C44.5146 30.4043 44.666 31.459 44.666 32.6211V34.3789H32.0684V31.5664H40.5205V31.2441C40.5205 30.6582 40.4131 30.1357 40.1982 29.6768C39.9932 29.208 39.6807 28.8369 39.2607 28.5635C38.8408 28.29 38.3037 28.1533 37.6494 28.1533C37.0928 28.1533 36.6143 28.2754 36.2139 28.5195C35.8135 28.7637 35.4863 29.1055 35.2324 29.5449C34.9883 29.9844 34.8027 30.502 34.6758 31.0977C34.5586 31.6836 34.5 32.3281 34.5 33.0312V33.6172C34.5 34.252 34.5879 34.8379 34.7637 35.375C34.9492 35.9121 35.208 36.376 35.54 36.7666C35.8818 37.1572 36.292 37.46 36.7705 37.6748C37.2588 37.8896 37.8105 37.9971 38.4258 37.9971C39.1875 37.9971 39.8955 37.8506 40.5498 37.5576C41.2139 37.2549 41.7852 36.8008 42.2637 36.1953L44.3145 38.4219C43.9824 38.9004 43.5283 39.3594 42.9521 39.7988C42.3857 40.2383 41.7021 40.5996 40.9014 40.8828C40.1006 41.1562 39.1875 41.293 38.1621 41.293ZM50.4668 25.1504L53.0889 29.9697L55.7842 25.1504H60.2812L55.7988 32.8994L60.4863 41H55.9746L53.1182 35.9023L50.2617 41H45.75L50.4375 32.8994L45.9551 25.1504H50.4668ZM62.5371 38.9639C62.5371 38.3389 62.752 37.8164 63.1816 37.3965C63.6211 36.9766 64.2021 36.7666 64.9248 36.7666C65.6475 36.7666 66.2236 36.9766 66.6533 37.3965C67.0928 37.8164 67.3125 38.3389 67.3125 38.9639C67.3125 39.5889 67.0928 40.1113 66.6533 40.5312C66.2236 40.9512 65.6475 41.1611 64.9248 41.1611C64.2021 41.1611 63.6211 40.9512 63.1816 40.5312C62.752 40.1113 62.5371 39.5889 62.5371 38.9639Z" fill="black"/>
<path d="M91.9111 19.6719H95.6318L101.11 35.3311L106.589 19.6719H110.31L102.604 41H99.6162L91.9111 19.6719ZM89.9043 19.6719H93.6104L94.2842 34.9355V41H89.9043V19.6719ZM108.61 19.6719H112.331V41H107.937V34.9355L108.61 19.6719ZM124.475 37.4258V30.3652C124.475 29.8574 124.392 29.4229 124.226 29.0615C124.06 28.6904 123.801 28.4023 123.449 28.1973C123.107 27.9922 122.663 27.8896 122.116 27.8896C121.647 27.8896 121.242 27.9727 120.9 28.1387C120.559 28.2949 120.295 28.5244 120.109 28.8271C119.924 29.1201 119.831 29.4668 119.831 29.8672H115.612C115.612 29.1934 115.769 28.5537 116.081 27.9482C116.394 27.3428 116.848 26.8105 117.443 26.3516C118.039 25.8828 118.747 25.5166 119.567 25.2529C120.397 24.9893 121.325 24.8574 122.351 24.8574C123.581 24.8574 124.675 25.0625 125.632 25.4727C126.589 25.8828 127.341 26.498 127.888 27.3184C128.444 28.1387 128.723 29.1641 128.723 30.3945V37.1768C128.723 38.0459 128.776 38.7588 128.884 39.3154C128.991 39.8623 129.147 40.3408 129.353 40.751V41H125.09C124.885 40.5703 124.729 40.0332 124.621 39.3887C124.523 38.7344 124.475 38.0801 124.475 37.4258ZM125.031 31.3467L125.061 33.7344H122.702C122.146 33.7344 121.662 33.7979 121.252 33.9248C120.842 34.0518 120.505 34.2324 120.241 34.4668C119.978 34.6914 119.782 34.9551 119.655 35.2578C119.538 35.5605 119.479 35.8926 119.479 36.2539C119.479 36.6152 119.562 36.9424 119.729 37.2354C119.895 37.5186 120.134 37.7432 120.446 37.9092C120.759 38.0654 121.125 38.1436 121.545 38.1436C122.18 38.1436 122.731 38.0166 123.2 37.7627C123.669 37.5088 124.03 37.1963 124.284 36.8252C124.548 36.4541 124.685 36.1025 124.694 35.7705L125.808 37.5576C125.651 37.958 125.437 38.373 125.163 38.8027C124.899 39.2324 124.562 39.6377 124.152 40.0186C123.742 40.3896 123.249 40.6973 122.673 40.9414C122.097 41.1758 121.413 41.293 120.622 41.293C119.616 41.293 118.703 41.0928 117.883 40.6924C117.072 40.2822 116.428 39.7207 115.949 39.0078C115.48 38.2852 115.246 37.4648 115.246 36.5469C115.246 35.7168 115.402 34.9795 115.715 34.335C116.027 33.6904 116.486 33.1484 117.092 32.709C117.707 32.2598 118.474 31.9229 119.392 31.6982C120.31 31.4639 121.374 31.3467 122.585 31.3467H125.031ZM138.522 37.9971C139.04 37.9971 139.499 37.8994 139.899 37.7041C140.3 37.499 140.612 37.2158 140.837 36.8545C141.071 36.4834 141.193 36.0488 141.203 35.5508H145.173C145.163 36.6641 144.865 37.6553 144.279 38.5244C143.693 39.3838 142.907 40.0625 141.921 40.5605C140.935 41.0488 139.831 41.293 138.61 41.293C137.38 41.293 136.306 41.0879 135.388 40.6777C134.479 40.2676 133.723 39.7012 133.117 38.9785C132.512 38.2461 132.058 37.3965 131.755 36.4297C131.452 35.4531 131.301 34.4082 131.301 33.2949V32.8701C131.301 31.7471 131.452 30.7021 131.755 29.7354C132.058 28.7588 132.512 27.9092 133.117 27.1865C133.723 26.4541 134.479 25.8828 135.388 25.4727C136.296 25.0625 137.36 24.8574 138.581 24.8574C139.88 24.8574 141.018 25.1064 141.994 25.6045C142.98 26.1025 143.752 26.8154 144.309 27.7432C144.875 28.6611 145.163 29.75 145.173 31.0098H141.203C141.193 30.4824 141.081 30.0039 140.866 29.5742C140.661 29.1445 140.358 28.8027 139.958 28.5488C139.567 28.2852 139.084 28.1533 138.508 28.1533C137.893 28.1533 137.39 28.2852 136.999 28.5488C136.608 28.8027 136.306 29.1543 136.091 29.6035C135.876 30.043 135.725 30.5459 135.637 31.1123C135.559 31.6689 135.52 32.2549 135.52 32.8701V33.2949C135.52 33.9102 135.559 34.501 135.637 35.0674C135.715 35.6338 135.861 36.1367 136.076 36.5762C136.301 37.0156 136.608 37.3623 136.999 37.6162C137.39 37.8701 137.897 37.9971 138.522 37.9971ZM155.69 25.1504V41H151.457V25.1504H155.69ZM160.788 25.1504V28.417H146.433V25.1504H160.788ZM169.211 41.293C167.98 41.293 166.877 41.0977 165.9 40.707C164.924 40.3066 164.094 39.7549 163.41 39.0518C162.736 38.3486 162.219 37.5332 161.857 36.6055C161.496 35.668 161.315 34.6719 161.315 33.6172V33.0312C161.315 31.8301 161.486 30.7314 161.828 29.7354C162.17 28.7393 162.658 27.875 163.293 27.1426C163.938 26.4102 164.719 25.8486 165.637 25.458C166.555 25.0576 167.59 24.8574 168.742 24.8574C169.865 24.8574 170.861 25.043 171.73 25.4141C172.6 25.7852 173.327 26.3125 173.913 26.9961C174.509 27.6797 174.958 28.5 175.261 29.457C175.563 30.4043 175.715 31.459 175.715 32.6211V34.3789H163.117V31.5664H171.569V31.2441C171.569 30.6582 171.462 30.1357 171.247 29.6768C171.042 29.208 170.729 28.8369 170.31 28.5635C169.89 28.29 169.353 28.1533 168.698 28.1533C168.142 28.1533 167.663 28.2754 167.263 28.5195C166.862 28.7637 166.535 29.1055 166.281 29.5449C166.037 29.9844 165.852 30.502 165.725 31.0977C165.607 31.6836 165.549 32.3281 165.549 33.0312V33.6172C165.549 34.252 165.637 34.8379 165.812 35.375C165.998 35.9121 166.257 36.376 166.589 36.7666C166.931 37.1572 167.341 37.46 167.819 37.6748C168.308 37.8896 168.859 37.9971 169.475 37.9971C170.236 37.9971 170.944 37.8506 171.599 37.5576C172.263 37.2549 172.834 36.8008 173.312 36.1953L175.363 38.4219C175.031 38.9004 174.577 39.3594 174.001 39.7988C173.435 40.2383 172.751 40.5996 171.95 40.8828C171.149 41.1562 170.236 41.293 169.211 41.293ZM182.336 28.1973V47.0938H178.117V25.1504H182.028L182.336 28.1973ZM192.37 32.8994V33.207C192.37 34.3594 192.233 35.4287 191.96 36.415C191.696 37.4014 191.306 38.2607 190.788 38.9932C190.271 39.7158 189.626 40.2822 188.854 40.6924C188.093 41.0928 187.214 41.293 186.218 41.293C185.251 41.293 184.411 41.0977 183.698 40.707C182.985 40.3164 182.385 39.7695 181.896 39.0664C181.418 38.3535 181.032 37.5283 180.739 36.5908C180.446 35.6533 180.222 34.6475 180.065 33.5732V32.7676C180.222 31.6152 180.446 30.5605 180.739 29.6035C181.032 28.6367 181.418 27.8018 181.896 27.0986C182.385 26.3857 182.98 25.834 183.684 25.4434C184.396 25.0527 185.231 24.8574 186.188 24.8574C187.194 24.8574 188.078 25.0479 188.84 25.4287C189.611 25.8096 190.256 26.3564 190.773 27.0693C191.301 27.7822 191.696 28.6318 191.96 29.6182C192.233 30.6045 192.37 31.6982 192.37 32.8994ZM188.137 33.207V32.8994C188.137 32.2256 188.078 31.6055 187.961 31.0391C187.854 30.4629 187.678 29.96 187.434 29.5303C187.199 29.1006 186.887 28.7686 186.496 28.5342C186.115 28.29 185.651 28.168 185.104 28.168C184.528 28.168 184.035 28.2607 183.625 28.4463C183.225 28.6318 182.897 28.9004 182.644 29.252C182.39 29.6035 182.199 30.0234 182.072 30.5117C181.945 31 181.867 31.5518 181.838 32.167V34.2031C181.887 34.9258 182.023 35.5752 182.248 36.1514C182.473 36.7178 182.819 37.167 183.288 37.499C183.757 37.8311 184.372 37.9971 185.134 37.9971C185.69 37.9971 186.159 37.875 186.54 37.6309C186.921 37.377 187.229 37.0303 187.463 36.5908C187.707 36.1514 187.878 35.6436 187.976 35.0674C188.083 34.4912 188.137 33.8711 188.137 33.207Z" fill="white"/>
</svg>
