<?xml version="1.0" encoding="UTF-8"?>
<svg xmlns="http://www.w3.org/2000/svg" xmlns:xlink="http://www.w3.org/1999/xlink" width="30px" height="30px" viewBox="0 0 30 30" version="1.1">
<g id="surface1">
<path style=" stroke:none;fill-rule:nonzero;fill:rgb(0%,0%,0%);fill-opacity:1;" d="M 7.585938 0.109375 C 7.019531 0.375 6.761719 1.039062 7 1.628906 C 7.066406 1.789062 8.914062 3.664062 13.695312 8.421875 L 20.304688 15 L 13.695312 21.574219 C 8.90625 26.34375 7.066406 28.210938 7 28.371094 C 6.953125 28.492188 6.914062 28.699219 6.914062 28.828125 C 6.914062 29.671875 7.769531 30.242188 8.523438 29.890625 C 8.859375 29.730469 22.828125 15.828125 22.976562 15.5 C 23.117188 15.199219 23.117188 14.800781 22.976562 14.5 C 22.828125 14.171875 8.859375 0.269531 8.523438 0.109375 C 8.226562 -0.03125 7.886719 -0.03125 7.585938 0.109375 Z M 7.585938 0.109375 "/>
</g>
</svg>
