<svg width="40" height="40" viewBox="0 0 40 40" fill="none" xmlns="http://www.w3.org/2000/svg">
<path d="M5.32031 2.625C4 2.97656 2.96875 4.03125 2.61719 5.36719C2.4375 6.03906 2.4375 33.9609 2.61719 34.6328C2.96875 35.9844 4.00781 37.0312 5.35156 37.3828C5.75781 37.4844 7.51562 37.5 20 37.5C35.4688 37.5 34.5703 37.5234 35.4844 37.0625C36.3906 36.6016 37.2109 35.5234 37.4141 34.5156C37.4766 34.2266 37.4922 30.9687 37.4844 23.6953C37.4609 13.3281 37.4609 13.2891 37.2969 13.0781C36.9922 12.6641 36.7422 12.5391 36.25 12.5391C35.7578 12.5391 35.5078 12.6641 35.2031 13.0781C35.0391 13.2891 35.0391 13.3437 35 23.75C34.9609 34.1562 34.9609 34.2109 34.7969 34.4219C34.7109 34.5391 34.5391 34.7109 34.4219 34.7969L34.2109 34.9609H20H5.78906L5.57812 34.7969C5.46094 34.7109 5.28906 34.5391 5.20312 34.4219L5.03906 34.2109V20V5.78906L5.20312 5.57812C5.28906 5.46094 5.46094 5.28906 5.57812 5.20312C5.78906 5.03906 5.84375 5.03906 16.25 5C26.6562 4.96094 26.7109 4.96094 26.9219 4.79688C27.3359 4.49219 27.4609 4.24219 27.4609 3.75C27.4609 3.25781 27.3359 3.00781 26.9219 2.70312C26.7109 2.53906 26.6797 2.53906 16.2266 2.52344C7.26562 2.50781 5.67969 2.52344 5.32031 2.625Z" fill="#04A314"/>
<path d="M35.6406 2.70312C35.4453 2.80469 33.375 5.45312 27.6328 12.9766L19.8828 23.1172L15.2344 18.4766C10.1953 13.4453 10.4375 13.6484 9.71095 13.7891C9.32814 13.8594 8.85939 14.3281 8.78908 14.7109C8.64845 15.4375 8.39064 15.1406 14.086 20.8437C17.8906 24.6484 19.4063 26.1172 19.6016 26.1797C19.9141 26.2891 20.4063 26.2344 20.6641 26.0625C20.836 25.9453 36.8672 5.07031 37.2422 4.46094C37.5703 3.9375 37.4219 3.14844 36.9297 2.79688C36.6172 2.57031 35.9844 2.53125 35.6406 2.70312Z" fill="#04A314"/>
</svg>
