<svg width="50" height="50" viewBox="0 0 50 50" fill="none" xmlns="http://www.w3.org/2000/svg">
<g clip-path="url(#clip0_34_28)">
<path d="M37.9815 13.1368C35.9864 13.8703 11.3711 23.3233 11.0073 23.4993C9.80445 24.0685 9.66363 24.8195 10.667 25.33C10.7668 25.3828 12.4273 25.9109 14.3696 26.5153L17.8961 27.6126L25.8997 22.6015C30.3064 19.8495 33.9973 17.5611 34.1029 17.5259C34.3787 17.432 34.6134 17.4379 34.719 17.5494C34.7953 17.6257 34.8012 17.6609 34.7366 17.7723C34.7014 17.8486 31.7734 20.5067 28.241 23.6753C24.7086 26.8498 21.804 29.4668 21.7923 29.4961C21.7806 29.5255 21.6632 31.1098 21.5283 33.0168L21.2818 36.4788L21.5517 36.4436C21.6984 36.426 21.9273 36.3497 22.0622 36.2734C22.2031 36.203 23.1184 35.3698 24.1101 34.4251C25.0959 33.4804 25.9408 32.6882 25.9819 32.6765C26.023 32.6589 27.5955 33.7738 29.4791 35.1527C31.3568 36.5316 33.0408 37.7228 33.2227 37.8049C33.698 38.0279 34.2261 38.0455 34.5723 37.8636C34.8833 37.6993 35.1826 37.2885 35.3117 36.8602C35.3586 36.6959 36.4383 31.7259 37.6998 25.8171C39.8064 15.9827 40 15.0321 40 14.5216C40 14.0404 39.9824 13.9231 39.8533 13.6708C39.7653 13.4889 39.6069 13.307 39.4543 13.2014C39.1081 12.9608 38.5331 12.9314 37.9815 13.1368Z" fill="#E34136"/>
<path d="M0.0703539 37.2309C0.363826 39.4912 1.18555 41.6047 2.51596 43.4834C3.24964 44.5303 5.12786 46.4286 6.32132 47.319C7.97455 48.5616 9.8332 49.3933 11.956 49.8239C12.7679 49.9902 13.6483 50 25.0057 50C36.3631 50 37.2435 49.9902 38.0555 49.8239C41.1174 49.1977 43.4554 47.8571 45.901 45.3229C47.6618 43.5127 48.6792 41.8689 49.3542 39.8043C50.0292 37.7202 49.9998 38.4932 49.9998 25C49.9998 13.6399 49.99 12.7593 49.8237 11.9472C49.2368 9.06067 48.0727 6.89824 45.8912 4.65753C43.4358 2.12329 41.1076 0.802349 38.0555 0.176126C37.2435 0.00978511 36.3631 3.72529e-07 25.0057 3.72529e-07C13.6483 3.72529e-07 12.7679 0.00978511 11.956 0.176126C8.90387 0.802349 6.57566 2.12329 4.12027 4.65753C1.99749 6.84932 0.892077 8.85519 0.226873 11.7123C0.0214418 12.6125 0.0214418 12.7495 0.00187696 24.6086C-0.00790545 31.2035 0.0214418 36.8787 0.0703539 37.2309ZM4.02245 12.8571C4.28658 11.3503 4.91265 9.85323 5.76372 8.69863C6.35067 7.89628 7.7789 6.46771 8.62019 5.8317C9.52995 5.14677 11.056 4.41292 12.1419 4.13894L13.0223 3.91389H25.0057H36.9892L37.8598 4.13894C38.9163 4.40313 40.3446 5.06849 41.2348 5.69472C42.0076 6.25245 43.6412 7.87671 44.2478 8.69863C45.0988 9.85323 45.7249 11.3503 45.989 12.8571C46.2042 14.0802 46.2042 35.9198 45.989 37.1429C45.7249 38.6595 45.089 40.1761 44.2478 41.3014C43.6217 42.1233 42.2032 43.5519 41.3913 44.1683C40.4815 44.8532 38.9555 45.5871 37.8696 45.8611L36.9892 46.0861H25.0057H13.0223L12.1516 45.8611C11.0951 45.5969 9.66691 44.9315 8.77671 44.3053C8.01368 43.7573 6.37023 42.1233 5.75394 41.2916C4.942 40.1859 4.28658 38.6399 4.02245 37.2016C3.81702 36.0959 3.81702 13.9922 4.02245 12.8571Z" fill="#E34136"/>
</g>
<defs>
<clipPath id="clip0_34_28">
<rect width="50" height="50" fill="white"/>
</clipPath>
</defs>
</svg>
