<svg width="50" height="50" viewBox="0 0 50 50" fill="none" xmlns="http://www.w3.org/2000/svg">
<path d="M0.0703539 37.2309C0.363826 39.4912 1.18555 41.6047 2.51596 43.4834C3.24964 44.5303 5.12786 46.4286 6.32132 47.319C7.97455 48.5616 9.8332 49.3933 11.956 49.8239C12.7679 49.9902 13.6483 50 25.0057 50C36.3631 50 37.2435 49.9902 38.0555 49.8239C41.1174 49.1977 43.4554 47.8571 45.901 45.3229C47.6618 43.5127 48.6792 41.8689 49.3542 39.8043C50.0292 37.7202 49.9998 38.4932 49.9998 25C49.9998 13.6399 49.99 12.7593 49.8237 11.9472C49.2368 9.06067 48.0727 6.89824 45.8912 4.65753C43.4358 2.12329 41.1076 0.802349 38.0555 0.176126C37.2435 0.00978511 36.3631 3.72529e-07 25.0057 3.72529e-07C13.6483 3.72529e-07 12.7679 0.00978511 11.956 0.176126C8.90387 0.802349 6.57566 2.12329 4.12027 4.65753C1.99749 6.84932 0.892077 8.85519 0.226873 11.7123C0.0214418 12.6125 0.0214418 12.7495 0.00187696 24.6086C-0.00790545 31.2035 0.0214418 36.8787 0.0703539 37.2309ZM4.02245 12.8571C4.28658 11.3503 4.91265 9.85323 5.76372 8.69863C6.35067 7.89628 7.7789 6.46771 8.62019 5.8317C9.52995 5.14677 11.056 4.41292 12.1419 4.13894L13.0223 3.91389H25.0057H36.9892L37.8598 4.13894C38.9163 4.40313 40.3446 5.06849 41.2348 5.69472C42.0076 6.25245 43.6412 7.87671 44.2478 8.69863C45.0988 9.85323 45.7249 11.3503 45.989 12.8571C46.2042 14.0802 46.2042 35.9198 45.989 37.1429C45.7249 38.6595 45.089 40.1761 44.2478 41.3014C43.6217 42.1233 42.2032 43.5519 41.3913 44.1683C40.4815 44.8532 38.9555 45.5871 37.8696 45.8611L36.9892 46.0861H25.0057H13.0223L12.1516 45.8611C11.0951 45.5969 9.66691 44.9315 8.77671 44.3053C8.01368 43.7573 6.37023 42.1233 5.75394 41.2916C4.942 40.1859 4.28658 38.6399 4.02245 37.2016C3.81702 36.0959 3.81702 13.9922 4.02245 12.8571Z" fill="#E34136"/>
<g clip-path="url(#clip0_39_6)">
<path d="M24.1054 9.24263C21.2371 9.28138 15.0654 9.75224 11.613 12.9155C9.0502 15.4634 8.15473 19.2198 8.05043 23.8716C7.96098 28.5056 7.85668 37.2073 16.2455 39.5779V43.1837C16.2455 43.1837 16.1888 44.6291 17.1425 44.9271C18.3196 45.2996 18.9901 44.1836 20.1076 42.9916L22.1936 40.6373C27.9302 41.1141 32.3257 40.013 32.8324 39.8491C33.9946 39.4765 40.5521 38.6407 41.6249 29.9375C42.7276 20.9512 41.0886 15.2891 38.1384 12.7263L38.1234 12.7233C37.2294 11.9038 33.6534 9.2963 25.652 9.26649C25.652 9.26649 25.0619 9.22923 24.1054 9.24267V9.24263ZM24.2052 11.7712C25.0173 11.7667 25.5164 11.801 25.5164 11.801C32.281 11.8159 35.5159 13.8572 36.2758 14.5426C38.7641 16.6719 40.0426 21.7782 39.1068 29.2819C38.2128 36.5532 32.8934 37.0151 31.91 37.328C31.4928 37.4621 27.6188 38.4157 22.7435 38.1028C22.7435 38.1028 19.1093 42.4849 17.9769 43.6173C17.7981 43.811 17.5895 43.8707 17.4554 43.8409C17.2617 43.7962 17.2021 43.5577 17.217 43.2299L17.2468 37.2416C10.1379 35.2748 10.5551 27.8514 10.6296 23.9774C10.719 20.1033 11.4491 16.9266 13.6097 14.781C16.5257 12.1437 21.7675 11.7861 24.2037 11.7712H24.2052ZM24.7416 15.6452C24.6831 15.645 24.6251 15.6564 24.5709 15.6786C24.5168 15.7008 24.4676 15.7334 24.4261 15.7747C24.3846 15.8159 24.3517 15.8649 24.3291 15.9189C24.3065 15.9728 24.2947 16.0307 24.2946 16.0892V16.0907C24.2945 16.1494 24.3062 16.2076 24.3286 16.2618C24.3511 16.316 24.384 16.3653 24.4255 16.4068C24.467 16.4483 24.5162 16.4813 24.5705 16.5037C24.6247 16.5262 24.6829 16.5378 24.7416 16.5378C25.8493 16.5166 26.9503 16.7151 27.9809 17.1217C29.0116 17.5284 29.9514 18.1351 30.7463 18.9069C32.3705 20.4863 33.1617 22.6021 33.1915 25.3736C33.1915 25.4323 33.203 25.4904 33.2255 25.5446C33.248 25.5988 33.2809 25.6481 33.3224 25.6896C33.3639 25.7311 33.4132 25.7641 33.4674 25.7866C33.5216 25.809 33.5798 25.8206 33.6385 25.8206V25.8071C33.7571 25.8071 33.8708 25.7601 33.9546 25.6763C34.0384 25.5924 34.0855 25.4787 34.0855 25.3601C34.1408 24.0568 33.9301 22.7558 33.4665 21.5365C33.0028 20.3172 32.2958 19.205 31.3885 18.2676C29.6155 16.5392 27.3775 15.6452 24.7401 15.6452H24.7416ZM18.85 16.6733C18.5332 16.6282 18.2103 16.6912 17.9337 16.8521H17.9158C17.2757 17.2264 16.6985 17.6991 16.2053 18.2528C15.803 18.7296 15.578 19.2049 15.5183 19.6668C15.4833 19.9377 15.5088 20.213 15.5929 20.4729L15.6227 20.4878C16.0819 21.8379 16.6812 23.1364 17.4107 24.3618C18.3563 26.0781 19.518 27.666 20.8675 29.0867L20.9122 29.1463L20.9718 29.191L21.0165 29.2357L21.0612 29.2804C22.4876 30.6333 24.0796 31.7998 25.7995 32.7521C27.7663 33.8249 28.9613 34.3315 29.6766 34.5401V34.555C29.869 34.6127 30.0687 34.6428 30.2696 34.6444C30.8801 34.5998 31.4581 34.3523 31.9116 33.9412C32.4642 33.4509 32.9324 32.873 33.2973 32.2306V32.2157C33.64 31.575 33.5208 30.9627 33.0291 30.5455C32.0381 29.6786 30.9653 28.91 29.8256 28.2508C29.0656 27.8336 28.2908 28.0869 27.9779 28.504L27.3074 29.3519C26.9647 29.7691 26.3389 29.7095 26.3389 29.7095L26.321 29.7244C21.6721 28.5324 20.4354 23.8254 20.4354 23.8254C20.4354 23.8254 20.3758 23.1847 20.8079 22.8569L21.6423 22.1864C22.0446 21.8586 22.3278 21.0838 21.8957 20.3239C21.2373 19.1836 20.4687 18.1106 19.601 17.1203C19.4122 16.8863 19.1458 16.7277 18.85 16.6733ZM25.5149 17.9994C25.4562 17.9996 25.3981 18.0114 25.344 18.034C25.2898 18.0567 25.2406 18.0898 25.1992 18.1314C25.1579 18.1731 25.1251 18.2225 25.1029 18.2768C25.0806 18.3311 25.0692 18.3893 25.0694 18.448C25.0696 18.5067 25.0814 18.5647 25.104 18.6189C25.1267 18.6731 25.1597 18.7222 25.2013 18.7636C25.243 18.805 25.2924 18.8377 25.3467 18.86C25.4011 18.8823 25.4592 18.8937 25.5179 18.8935C27.009 18.9194 28.429 19.5356 29.4664 20.607C29.9345 21.1233 30.2942 21.7282 30.5246 22.3859C30.7549 23.0436 30.8511 23.7408 30.8074 24.4363C30.8078 24.5546 30.8551 24.6679 30.9389 24.7514C31.0227 24.8349 31.1362 24.8818 31.2545 24.8818L31.2694 24.8997C31.3879 24.8997 31.5016 24.8526 31.5854 24.7688C31.6692 24.685 31.7164 24.5713 31.7164 24.4527V24.4512C31.7611 22.6781 31.2097 21.1881 30.122 19.9961C29.0343 18.8041 27.5145 18.1336 25.5775 17.9994C25.5566 17.998 25.5358 17.998 25.5149 17.9994ZM26.245 20.4118C26.1243 20.4082 26.0071 20.4528 25.9192 20.5356C25.8313 20.6185 25.7799 20.7328 25.7764 20.8536C25.7728 20.9743 25.8174 21.0915 25.9002 21.1794C25.9831 21.2672 26.0974 21.3186 26.2181 21.3222C27.6933 21.3967 28.4085 22.1417 28.4979 23.6764C28.5018 23.7924 28.5506 23.9023 28.634 23.9829C28.7174 24.0635 28.8289 24.1086 28.945 24.1085H28.9598C29.0185 24.1067 29.0762 24.0933 29.1297 24.0692C29.1832 24.045 29.2315 24.0106 29.2717 23.9678C29.3119 23.925 29.3433 23.8748 29.364 23.8199C29.3848 23.765 29.3946 23.7065 29.3927 23.6478C29.3926 23.6424 29.3923 23.6371 29.3919 23.6317C29.2876 21.6351 28.1999 20.5161 26.2629 20.4118C26.2569 20.4117 26.251 20.4117 26.245 20.4118Z" fill="#E34136"/>
</g>
<defs>
<clipPath id="clip0_39_6">
<rect width="40" height="40" fill="white" transform="translate(5 5)"/>
</clipPath>
</defs>
</svg>
